<svg id="epVWe9bOdzQ1" xmlns="http://www.w3.org/2000/svg" xmlns:xlink="http://www.w3.org/1999/xlink" viewBox="0 0 288 288" shape-rendering="geometricPrecision" text-rendering="geometricPrecision"><g><g><path d="M155.62,11.63c0,.68-.06,1.35-.17,1.99-.49,2.88-2.05,5.39-4.26,7.11-1.98,1.58-4.48,2.51-7.19,2.51-2.08,0-4.02-.59-5.71-1.55c7.69-4.13,9.97-10.39,7.38-21.55c1.39.21,2.69.68,3.89,1.34c3.6,1.97,6.07,5.76,6.07,10.15h-.01Z" fill="#d9a12b" stroke-width="0"/><path d="M145.66,0.14c2.59,11.15.31,17.42-7.38,21.55-.51-.29-.99-.61-1.44-.97-2.21-1.73-3.79-4.22-4.28-7.1-.13-.64-.18-1.31-.18-1.99c0-6.42,5.2-11.63,11.61-11.63.56,0,1.13.05,1.67.14Z" fill="#f8ac1e" stroke-width="0"/><path d="M155.45,13.62l97.57,49.23h-18.37L151.19,20.73c2.21-1.73,3.76-4.24,4.26-7.11Z" fill="#c3d2d8" stroke-width="0"/><path d="M132.56,13.62c.49,2.88,2.07,5.38,4.28,7.1L53.36,62.85h-18.38l97.58-49.23Z" fill="#c3d2d8" stroke-width="0"/></g></g><g><g><path d="M260.13,74.47c11.07,0,9.97-3.17,10.22-11.63h6.02c6.42,0,11.63,5.2,11.63,11.63s-5.2,11.63-11.63,11.63h-264.74C5.21,86.1,0,80.9,0,74.47c0-1.89.49-3.65,1.3-5.23c1.04,5.58,4.37,5.02,11.22,5.23h247.61Z" fill="#be694f" stroke-width="0"/><path d="M267.58,62.85h2.77c-.25,8.46.85,11.63-10.22,11.63h-247.61c-6.85-.21-10.19.36-11.22-5.23c1.91-3.78,5.79-6.4,10.32-6.4h255.96Z" fill="#e09c3d" stroke-width="0"/></g></g><g id="epVWe9bOdzQ12"><rect width="229.6" height="46.28" rx="0" ry="0" transform="translate(29.2 51.34)" fill="#fcd680" stroke-width="0"/></g><g id="epVWe9bOdzQ14" transform="translate(0-144.850007)"><g transform="matrix(1 0 0 1.654969-.020015 99.738594)"><g id="epVWe9bOdzQ16" transform="matrix(1 0 0-.028199 0.040015 63.946797)"><rect width="204.82" height="144.85" rx="0" ry="0" transform="translate(41.59 56.11)" fill="#fce5b3" stroke-width="0"/><rect width="12.41" height="144.85" rx="0" ry="0" transform="translate(246.41 56.11)" fill="#5ca880" stroke-width="0"/><rect width="12.41" height="144.85" rx="0" ry="0" transform="translate(29.18 56.11)" fill="#5ca880" stroke-width="0"/></g></g><g><polygon points="143.97,267.66 258.82,208.54 258.82,200.96 246.41,200.96 143.97,253.7 41.59,200.96 29.18,200.96 29.18,208.54 143.97,267.66" fill="#5ca880" stroke-width="0"/><path d="M258.82,208.54v16.26c0,2.82-2.3,5.06-5.06,5.06s-5.11-2.24-5.11-5.06v-11.03l10.17-5.23Z" fill="#c3d2d8" stroke-width="0"/><polyline points="246.41,200.96 143.97,253.7 41.59,200.96" fill="#fce5b3" stroke-width="0"/><path d="M222.22,227.39v16.49c0,2.82-2.3,5.11-5.06,5.11s-5.06-2.3-5.06-5.11v-11.26l10.11-5.23h.01Z" fill="#c3d2d8" stroke-width="0"/><path d="M185.62,246.23v16.78c0,2.82-2.24,5.06-5.06,5.06s-5.06-2.24-5.06-5.06v-11.61l10.11-5.17h.01Z" fill="#c3d2d8" stroke-width="0"/><path d="M149.09,265.02v17.92c0,2.82-2.3,5.06-5.11,5.06s-5.06-2.24-5.06-5.06v-17.87l5.06,2.59l5.11-2.64Z" fill="#c3d2d8" stroke-width="0"/><path d="M112.49,251.4v11.61c0,2.82-2.3,5.06-5.06,5.06s-5.06-2.24-5.06-5.06v-16.78l10.11,5.17h.01Z" fill="#c3d2d8" stroke-width="0"/><path d="M65.78,227.39l10.11,5.23v11.26c0,2.82-2.24,5.11-5.06,5.11s-5.06-2.3-5.06-5.11v-16.49h.01Z" fill="#c3d2d8" stroke-width="0"/><path d="M39.29,213.77v11.03c0,2.82-2.24,5.06-5.06,5.06s-5.06-2.24-5.06-5.06v-16.26l10.11,5.23h.01Z" fill="#c3d2d8" stroke-width="0"/></g></g><g id="epVWe9bOdzQ30" transform="translate(.000003 0)"><g><polygon points="258.82,51.34 258.82,56.11 246.41,56.11 246.41,51.34 253.07,51.34 258.82,51.34" fill="#1b8040" stroke-width="0"/><polygon points="246.41,51.34 246.41,56.11 41.59,56.11 41.59,51.34 53.31,51.34 234.69,51.34 246.41,51.34" fill="#fcd680" stroke-width="0"/><polygon points="41.59,51.34 41.59,56.11 29.18,56.11 29.18,51.34 34.93,51.34 41.59,51.34" fill="#1b8040" stroke-width="0"/></g></g><g id="epVWe9bOdzQ35" transform="translate(0-12.154316)" opacity="0"><path d="M176.96,170.96c-.36.35-.2.8-.2,1.2-.01,7.25-.02,14.49,0,21.74c0,.85-.22,1.21-1.1,1.42-3.41.81-6.87,1.25-10.34,1.64-4.14.46-8.29.78-12.46.83-.96.22-1.93.04-2.9.1-.37.02-.76-.1-1.12.11h-10.14c-.96-.24-1.93-.04-2.89-.11-.38-.03-.76.1-1.13-.1-4.72-.08-9.42-.44-14.1-1.03-2.98-.38-5.95-.79-8.87-1.49-.81-.19-1.17-.47-1.14-1.38.07-2.39.02-4.78.03-7.17c0-.34-.1-.71.19-1c.32.26.29.63.29.97.01,2.21.01,4.43,0,6.64c0,.29.05.62-.14.74c1.44-2.7,3.03-5.46,4.57-8.25c2.89-5.23,5.85-10.42,8.72-15.65.2-.37.38-.76.72-1.03.93-.3,1.8.16,2.69.26c1.33.15,2.65.35,3.97.54c1.1.16,1.22.42.72,1.4-1.05,2.11-2.01,4.26-2.91,6.45-1.32,3.23-2.36,6.55-3.17,9.95-.19.79.06,1.16.81,1.4c2.08.66,4.14,1.37,6.21,2.06c1.16.38,1.22.36,1.51-.81c1.08-4.38,2.42-8.67,4.29-12.79.53-1.16,1.17-2.25,1.79-3.35.35-.62.86-.9,1.58-.75.77.16,1.55.21,2.31.03c1-.23,1.56.17,2.05,1.01c1.57,2.69,2.72,5.56,3.75,8.48.87,2.46,1.57,4.97,2.16,7.5.19.82.52,1.03,1.32.75c2.09-.74,4.19-1.44,6.31-2.1.86-.27,1.06-.7.85-1.57-1.28-5.4-3.25-10.55-5.7-15.52-.94-1.92-.89-1.98,1.27-2.25c6.49-.81,12.82-2.22,18.89-4.71.42-.17.83-.43,1.29-.08.55,1.16.23,2.39.27,3.59.03.78.22,1.61-.32,2.32l.07.01Z" fill="#e74b35" stroke-width="0"/><path d="M164.1,97c3.21.25,6.38.81,9.52,1.5c4.16.91,8.21,2.14,12.01,4.11c4.63,2.39,7.51,6,8.5,11.2.69,3.62,1.14,7.24,1.46,10.9.66,7.55.36,15.1.34,22.65c0,3.29-.22,6.59-.41,9.87-.2,3.46-.47,6.92-.6,10.38-.04,1.03-.73,1.45-1.54,1.78-1.57.65-3.25.95-4.91,1.08-2.86.22-5.72.63-8.6.45-.42-.56-.28-1.22-.28-1.84c0-12.04-.02-24.07,0-36.11c0-2.03-.7-3.78-1.81-5.41-.09-.13-.16-.32-.4-.31-.19.35-.09.74-.09,1.11c0,8.59,0,17.17-.01,25.76c0,.62.1,1.28-.28,1.85-1.73,1.07-3.7,1.51-5.61,2.09-5.8,1.77-11.74,2.88-17.76,3.63-1.07.13-2.1.05-3.09-.44-.6-.29-1.25-.48-1.85-.77-3.74-1.84-7.4-1.33-10.95.47-2.64,1.34-5.2.57-7.8.04-.47-.6.03-1.07.27-1.52c1.61-2.97,3.26-5.92,4.89-8.87c2.93-5.29,5.84-10.6,8.75-15.9c2.7-4.9,5.36-9.82,8.06-14.72c1.65-2.99,3.24-6.01,4.84-9.02c1.83-3.45,3.64-6.91,5.43-10.38.47-.91.83-1.86,1.27-2.78.15-.31.21-.69.62-.79l.03-.01Z" fill="#e74b35" stroke-width="0"/><path d="M107.7,170.92c-4.41-.06-8.83-.11-13.1-1.41-1.71-.52-1.96-.9-1.94-2.64.02-2.88-.14-5.76-.28-8.63-.13-2.88.05-5.77-.17-8.63-.36-4.67-.16-9.35-.15-14.02c0-3.93.16-7.86.42-11.77.34-5.2.87-10.36,1.96-15.48.84-3.97,3.3-6.06,6.87-7.34c4.41-1.58,8.96-2.48,13.57-3.16c2.73-.4,5.46-.76,8.21-1.03.24.12.34.35.43.58c2,5.21,4.9,9.96,7.56,14.83c3.12,5.71,6.39,11.33,9.64,16.97.42.73.38,1.38,0,2.09-1.53,2.81-3.05,5.62-4.57,8.44-2.09,3.86-4.21,7.71-6.29,11.58-1.42,2.63-2.86,5.25-4.26,7.89-.29.54-.69.88-1.33.87-2.9-.48-5.73-1.3-8.54-2.12-1.34-.39-2.66-.87-3.99-1.32-.43-.14-.88-.26-1.18-.64-.33-.59-.24-1.23-.25-1.86c0-8.55,0-17.1,0-25.66c0-.38.04-.77-.07-1.3-.74.7-1.18,1.51-1.54,2.35-.51,1.18-.68,2.42-.68,3.71.01,11.97.01,23.93,0,35.9c0,.62.14,1.28-.28,1.84l-.04-.04Z" fill="#e74b35" stroke-width="0"/><path d="M124.33,159.77c.48.02.74-.22.97-.64c3.31-6.16,6.64-12.31,9.97-18.46c1.74-3.21,3.47-6.43,5.24-9.63.35-.63.31-1.13-.05-1.75-3.99-6.87-7.95-13.75-11.73-20.74-1.74-3.21-3.54-6.4-4.98-9.77-.28-.64-.46-1.33-.68-1.99.29-2.02,1.1-3.76,2.74-5.04.52.19.64.7.87,1.12.86,1.51,1.51,3.13,2.58,4.51.59,1.74,1.62,3.28,2.47,4.89c2.9,5.46,5.85,10.9,8.78,16.35.9,1.67,1.81,3.34,2.7,5.01.19.35.48.68.31,1.28c1.26-2.24,2.38-4.39,3.53-6.51c3.06-5.62,6.09-11.25,9.14-16.87.74-1.35,1.58-2.66,2.09-4.13c1.06-1.39,1.75-3,2.59-4.52.23-.42.35-.93.88-1.12c1.51,1.42,2.21,3.21,2.33,5.24-2.69,6.2-6.05,12.06-9.22,18.01-2.35,4.4-4.73,8.79-7.12,13.16-4.53,8.25-9.09,16.49-13.62,24.74-1.44,2.62-2.85,5.25-4.28,7.87-.12.15-.28.23-.46.21-1.61-.16-3.2-.45-4.77-.84-.18-.04-.3-.17-.29-.38h.01Z" fill="#e23325" stroke-width="0"/><path d="M129.23,97.47c-.51-.04-.65-.47-.84-.83-.86-1.63-1.72-3.26-2.58-4.89c2.05-.65,4.18-.81,6.29-1.06c4.88-.56,9.78-.83,14.69-.63c4.71.19,9.42.48,14.06,1.44.31.06.61.16.91.25-.8,1.5-1.58,3.01-2.4,4.5-.26.47-.41,1.05-1.03,1.23-.44.28-.89.09-1.32,0-3.51-.75-7.06-1.13-10.66-1.23-5.46-.15-10.87.09-16.21,1.32-.31.07-.63.12-.91-.09v-.01Z" fill="#cc3028" stroke-width="0"/><path d="M107.7,170.92c0-10.56-.02-21.11-.02-31.67c0-2.36-.04-4.72,0-7.07.05-2.37,1.21-4.22,2.77-5.99.28.49.17.88.17,1.25c0,9.11,0,18.23.01,27.34c0,.41-.14.85.2,1.21.17.31.3.64.3,1-.02,2.67.11,5.34-.07,8.01-.25,1.49-.07,2.99-.14,4.49-.02.51.09,1.06-.33,1.49l-2.91-.04.02-.02Z" fill="#e23325" stroke-width="0"/><path d="M176.71,155.98c.37-.39.21-.87.21-1.31c0-9.08,0-18.16.01-27.23c0-.37-.1-.76.15-1.24c1.55,1.68,2.76,3.52,2.77,5.77.05,12.98.01,25.97,0,38.95-.97.01-1.94.03-2.91.04c0-1.61,0-3.22-.03-4.83c0-.37.13-.78-.2-1.1-.29-.31-.31-.7-.31-1.09-.02-2.29-.02-4.57,0-6.86c0-.39.03-.78.3-1.09l.01-.01Z" fill="#e23325" stroke-width="0"/><path d="M124.99,169.29c-1.17,2.16-2.31,4.33-3.5,6.47-2.88,5.18-5.79,10.35-8.69,15.53-.59,1.06-1.19,2.12-2,3.12c0-2.89,0-5.79,0-8.68.03-.06.04-.11.04-.18c1.05-2.74,2.66-5.19,4.02-7.77c1.54-2.92,3.12-5.83,4.74-8.71.22-.39.37-.85.85-1.03c1.4.13,2.74.51,4.11.82.21.05.37.2.43.42v.01Z" fill="#e74b35" stroke-width="0"/><path d="M120.32,168.23c-3.03,5.62-6.05,11.24-9.08,16.85-.1.18-.26.32-.39.48c0-4.47-.01-8.93-.03-13.4c0-.4.16-.85-.2-1.2c0-1.61,0-3.22.03-4.84c0-.37-.13-.78.2-1.1.36-.24.67-.03.99.1c2.49,1.04,5.06,1.85,7.67,2.57.33.09.71.12.83.54h-.02Z" fill="#e74b35" stroke-width="0"/><path d="M120.32,168.23c-3.22-.9-6.41-1.87-9.48-3.21-.08-3.02-.1-6.03,0-9.05c4.4,1.6,8.88,2.91,13.49,3.79c1.81.48,3.66.76,5.52,1.01c1.53.22,3.06.43,4.59.65.83.12,1.59-.01,2.34-.41.56-.29,1.18-.45,1.75-.73c3.53-1.73,7.11-1.79,10.54.06c2.51,1.35,4.99,1.04,7.57.65c6.4-.98,12.7-2.4,18.81-4.57.42-.15.84-.3,1.26-.44.12,3.01.09,6.03.02,9.04-6.91,2.97-14.18,4.46-21.62,5.33-.07.43.23.72.39,1.04c2.69,5.32,4.82,10.83,6.13,16.66.18.79-.03,1.04-.73,1.26-2.41.76-4.81,1.55-7.2,2.39-.69.24-.93.19-1.12-.6-1.25-5.34-2.85-10.58-5.46-15.44-.07-.12-.14-.24-.2-.37-.49-1.08-1.05-1.92-2.51-1.41-.55.19-1.29.11-1.87-.07-.8-.25-1.13.1-1.49.71-2.88,4.98-4.59,10.39-5.95,15.93-.37,1.51-.35,1.52-1.81,1.04-2.23-.73-4.46-1.49-6.7-2.2-.66-.21-.85-.44-.69-1.18c1.31-5.83,3.44-11.35,6.12-16.66.17-.34.33-.68.51-1.04-2.57-.38-5.07-.74-7.57-1.11-1.56-.35-3.11-.7-4.67-1.06l.03-.01Z" fill="#292f33" stroke-width="0"/><path d="M129.23,97.47c9.7-2.24,19.4-2.24,29.1,0c.28.33.03.59-.12.86-2.93,5.4-5.87,10.8-8.8,16.2-1.66,3.06-3.3,6.12-4.95,9.18-.23.43-.49.84-.77,1.33-1.56-2.86-3.07-5.63-4.57-8.41-3.23-6-6.45-12.01-9.65-18.02-.18-.33-.6-.66-.26-1.14h.02Z" fill="#b02926" stroke-width="0"/></g>
<script><![CDATA[
!function(t,n){"object"==typeof exports&&"undefined"!=typeof module?module.exports=n():"function"==typeof __SVGATOR_DEFINE__&&__SVGATOR_DEFINE__.amd?__SVGATOR_DEFINE__(n):((t="undefined"!=typeof globalThis?globalThis:t||self).__SVGATOR_PLAYER__=t.__SVGATOR_PLAYER__||{},t.__SVGATOR_PLAYER__["5c7f360c"]=n())}(this,(function(){"use strict";function t(t,n){var e=Object.keys(t);if(Object.getOwnPropertySymbols){var r=Object.getOwnPropertySymbols(t);n&&(r=r.filter((function(n){return Object.getOwnPropertyDescriptor(t,n).enumerable}))),e.push.apply(e,r)}return e}function n(n){for(var e=1;e<arguments.length;e++){var r=null!=arguments[e]?arguments[e]:{};e%2?t(Object(r),!0).forEach((function(t){u(n,t,r[t])})):Object.getOwnPropertyDescriptors?Object.defineProperties(n,Object.getOwnPropertyDescriptors(r)):t(Object(r)).forEach((function(t){Object.defineProperty(n,t,Object.getOwnPropertyDescriptor(r,t))}))}return n}function e(t){return(e="function"==typeof Symbol&&"symbol"==typeof Symbol.iterator?function(t){return typeof t}:function(t){return t&&"function"==typeof Symbol&&t.constructor===Symbol&&t!==Symbol.prototype?"symbol":typeof t})(t)}function r(t,n){if(!(t instanceof n))throw new TypeError("Cannot call a class as a function")}function i(t,n){for(var e=0;e<n.length;e++){var r=n[e];r.enumerable=r.enumerable||!1,r.configurable=!0,"value"in r&&(r.writable=!0),Object.defineProperty(t,r.key,r)}}function o(t,n,e){return n&&i(t.prototype,n),e&&i(t,e),t}function u(t,n,e){return n in t?Object.defineProperty(t,n,{value:e,enumerable:!0,configurable:!0,writable:!0}):t[n]=e,t}function a(t){return(a=Object.setPrototypeOf?Object.getPrototypeOf:function(t){return t.__proto__||Object.getPrototypeOf(t)})(t)}function l(t,n){return(l=Object.setPrototypeOf||function(t,n){return t.__proto__=n,t})(t,n)}function s(){if("undefined"==typeof Reflect||!Reflect.construct)return!1;if(Reflect.construct.sham)return!1;if("function"==typeof Proxy)return!0;try{return Boolean.prototype.valueOf.call(Reflect.construct(Boolean,[],(function(){}))),!0}catch(t){return!1}}function f(t,n,e){return(f=s()?Reflect.construct:function(t,n,e){var r=[null];r.push.apply(r,n);var i=new(Function.bind.apply(t,r));return e&&l(i,e.prototype),i}).apply(null,arguments)}function c(t,n){if(n&&("object"==typeof n||"function"==typeof n))return n;if(void 0!==n)throw new TypeError("Derived constructors may only return object or undefined");return function(t){if(void 0===t)throw new ReferenceError("this hasn't been initialised - super() hasn't been called");return t}(t)}function h(t,n,e){return(h="undefined"!=typeof Reflect&&Reflect.get?Reflect.get:function(t,n,e){var r=function(t,n){for(;!Object.prototype.hasOwnProperty.call(t,n)&&null!==(t=a(t)););return t}(t,n);if(r){var i=Object.getOwnPropertyDescriptor(r,n);return i.get?i.get.call(e):i.value}})(t,n,e||t)}function v(t){return function(t){if(Array.isArray(t))return y(t)}(t)||function(t){if("undefined"!=typeof Symbol&&null!=t[Symbol.iterator]||null!=t["@@iterator"])return Array.from(t)}(t)||function(t,n){if(!t)return;if("string"==typeof t)return y(t,n);var e=Object.prototype.toString.call(t).slice(8,-1);"Object"===e&&t.constructor&&(e=t.constructor.name);if("Map"===e||"Set"===e)return Array.from(t);if("Arguments"===e||/^(?:Ui|I)nt(?:8|16|32)(?:Clamped)?Array$/.test(e))return y(t,n)}(t)||function(){throw new TypeError("Invalid attempt to spread non-iterable instance.\nIn order to be iterable, non-array objects must have a [Symbol.iterator]() method.")}()}function y(t,n){(null==n||n>t.length)&&(n=t.length);for(var e=0,r=new Array(n);e<n;e++)r[e]=t[e];return r}function g(t,n,e){if(Number.isInteger(t))return t;var r=Math.pow(10,n);return Math[e]((+t+Number.EPSILON)*r)/r}Number.isInteger||(Number.isInteger=function(t){return"number"==typeof t&&isFinite(t)&&Math.floor(t)===t}),Number.EPSILON||(Number.EPSILON=2220446049250313e-31);var d=p(Math.pow(10,-6));function p(t){var n=arguments.length>1&&void 0!==arguments[1]?arguments[1]:6;return g(t,n,"round")}function m(t,n){var e=arguments.length>2&&void 0!==arguments[2]?arguments[2]:d;return Math.abs(t-n)<e}p(Math.pow(10,-2)),p(Math.pow(10,-4));var b=Math.PI/180;function w(t){return t}function A(t,n,e){var r=1-e;return 3*e*r*(t*r+n*e)+e*e*e}function _(){var t=arguments.length>0&&void 0!==arguments[0]?arguments[0]:0,n=arguments.length>1&&void 0!==arguments[1]?arguments[1]:0,e=arguments.length>2&&void 0!==arguments[2]?arguments[2]:1,r=arguments.length>3&&void 0!==arguments[3]?arguments[3]:1;return t<0||t>1||e<0||e>1?null:m(t,n)&&m(e,r)?w:function(i){if(i<=0)return t>0?i*n/t:0===n&&e>0?i*r/e:0;if(i>=1)return e<1?1+(i-1)*(r-1)/(e-1):1===e&&t<1?1+(i-1)*(n-1)/(t-1):1;for(var o,u=0,a=1;u<a;){var l=A(t,e,o=(u+a)/2);if(m(i,l))break;l<i?u=o:a=o}return A(n,r,o)}}function x(){return 1}function k(t){return 1===t?1:0}function S(){var t=arguments.length>0&&void 0!==arguments[0]?arguments[0]:1,n=arguments.length>1&&void 0!==arguments[1]?arguments[1]:0;if(1===t){if(0===n)return k;if(1===n)return x}var e=1/t;return function(t){return t>=1?1:(t+=n*e)-t%e}}var O=Math.sin,j=Math.cos,M=Math.acos,E=Math.asin,P=Math.tan,I=Math.atan2,R=Math.PI/180,F=180/Math.PI,N=Math.sqrt,T=function(){function t(){var n=arguments.length>0&&void 0!==arguments[0]?arguments[0]:1,e=arguments.length>1&&void 0!==arguments[1]?arguments[1]:0,i=arguments.length>2&&void 0!==arguments[2]?arguments[2]:0,o=arguments.length>3&&void 0!==arguments[3]?arguments[3]:1,u=arguments.length>4&&void 0!==arguments[4]?arguments[4]:0,a=arguments.length>5&&void 0!==arguments[5]?arguments[5]:0;r(this,t),this.m=[n,e,i,o,u,a],this.i=null,this.w=null,this.s=null}return o(t,[{key:"determinant",get:function(){var t=this.m;return t[0]*t[3]-t[1]*t[2]}},{key:"isIdentity",get:function(){if(null===this.i){var t=this.m;this.i=1===t[0]&&0===t[1]&&0===t[2]&&1===t[3]&&0===t[4]&&0===t[5]}return this.i}},{key:"point",value:function(t,n){var e=this.m;return{x:e[0]*t+e[2]*n+e[4],y:e[1]*t+e[3]*n+e[5]}}},{key:"translateSelf",value:function(){var t=arguments.length>0&&void 0!==arguments[0]?arguments[0]:0,n=arguments.length>1&&void 0!==arguments[1]?arguments[1]:0;if(!t&&!n)return this;var e=this.m;return e[4]+=e[0]*t+e[2]*n,e[5]+=e[1]*t+e[3]*n,this.w=this.s=this.i=null,this}},{key:"rotateSelf",value:function(){var t=arguments.length>0&&void 0!==arguments[0]?arguments[0]:0;if(t%=360){var n=O(t*=R),e=j(t),r=this.m,i=r[0],o=r[1];r[0]=i*e+r[2]*n,r[1]=o*e+r[3]*n,r[2]=r[2]*e-i*n,r[3]=r[3]*e-o*n,this.w=this.s=this.i=null}return this}},{key:"scaleSelf",value:function(){var t=arguments.length>0&&void 0!==arguments[0]?arguments[0]:1,n=arguments.length>1&&void 0!==arguments[1]?arguments[1]:1;if(1!==t||1!==n){var e=this.m;e[0]*=t,e[1]*=t,e[2]*=n,e[3]*=n,this.w=this.s=this.i=null}return this}},{key:"skewSelf",value:function(t,n){if(n%=360,(t%=360)||n){var e=this.m,r=e[0],i=e[1],o=e[2],u=e[3];t&&(t=P(t*R),e[2]+=r*t,e[3]+=i*t),n&&(n=P(n*R),e[0]+=o*n,e[1]+=u*n),this.w=this.s=this.i=null}return this}},{key:"resetSelf",value:function(){var t=arguments.length>0&&void 0!==arguments[0]?arguments[0]:1,n=arguments.length>1&&void 0!==arguments[1]?arguments[1]:0,e=arguments.length>2&&void 0!==arguments[2]?arguments[2]:0,r=arguments.length>3&&void 0!==arguments[3]?arguments[3]:1,i=arguments.length>4&&void 0!==arguments[4]?arguments[4]:0,o=arguments.length>5&&void 0!==arguments[5]?arguments[5]:0,u=this.m;return u[0]=t,u[1]=n,u[2]=e,u[3]=r,u[4]=i,u[5]=o,this.w=this.s=this.i=null,this}},{key:"recomposeSelf",value:function(){var t=arguments.length>0&&void 0!==arguments[0]?arguments[0]:null,n=arguments.length>1&&void 0!==arguments[1]?arguments[1]:null,e=arguments.length>2&&void 0!==arguments[2]?arguments[2]:null,r=arguments.length>3&&void 0!==arguments[3]?arguments[3]:null,i=arguments.length>4&&void 0!==arguments[4]?arguments[4]:null;return this.isIdentity||this.resetSelf(),t&&(t.x||t.y)&&this.translateSelf(t.x,t.y),n&&this.rotateSelf(n),e&&(e.x&&this.skewSelf(e.x,0),e.y&&this.skewSelf(0,e.y)),!r||1===r.x&&1===r.y||this.scaleSelf(r.x,r.y),i&&(i.x||i.y)&&this.translateSelf(i.x,i.y),this}},{key:"decompose",value:function(){var t=arguments.length>0&&void 0!==arguments[0]?arguments[0]:0,n=arguments.length>1&&void 0!==arguments[1]?arguments[1]:0,e=this.m,r=e[0]*e[0]+e[1]*e[1],i=[[e[0],e[1]],[e[2],e[3]]],o=N(r);if(0===o)return{origin:{x:p(e[4]),y:p(e[5])},translate:{x:p(t),y:p(n)},scale:{x:0,y:0},skew:{x:0,y:0},rotate:0};i[0][0]/=o,i[0][1]/=o;var u=e[0]*e[3]-e[1]*e[2]<0;u&&(o=-o);var a=i[0][0]*i[1][0]+i[0][1]*i[1][1];i[1][0]-=i[0][0]*a,i[1][1]-=i[0][1]*a;var l=N(i[1][0]*i[1][0]+i[1][1]*i[1][1]);if(0===l)return{origin:{x:p(e[4]),y:p(e[5])},translate:{x:p(t),y:p(n)},scale:{x:p(o),y:0},skew:{x:0,y:0},rotate:0};i[1][0]/=l,i[1][1]/=l,a/=l;var s=0;return i[1][1]<0?(s=M(i[1][1])*F,i[0][1]<0&&(s=360-s)):s=E(i[0][1])*F,u&&(s=-s),a=I(a,N(i[0][0]*i[0][0]+i[0][1]*i[0][1]))*F,u&&(a=-a),{origin:{x:p(e[4]),y:p(e[5])},translate:{x:p(t),y:p(n)},scale:{x:p(o),y:p(l)},skew:{x:p(a),y:0},rotate:p(s)}}},{key:"clone",value:function(){var t=this.m;return new this.constructor(t[0],t[1],t[2],t[3],t[4],t[5])}},{key:"toString",value:function(){var t=arguments.length>0&&void 0!==arguments[0]?arguments[0]:" ";if(null===this.s){var n=this.m.map((function(t){return p(t)}));1===n[0]&&0===n[1]&&0===n[2]&&1===n[3]?this.s="translate("+n[4]+t+n[5]+")":this.s="matrix("+n.join(t)+")"}return this.s}}],[{key:"create",value:function(t){return t?Array.isArray(t)?f(this,v(t)):t instanceof this?t.clone():(new this).recomposeSelf(t.origin,t.rotate,t.skew,t.scale,t.translate):new this}}]),t}();function q(t,n,e){return t>=.5?e:n}function B(t,n,e){return 0===t||n===e?n:t*(e-n)+n}function D(t,n,e){var r=B(t,n,e);return r<=0?0:r}function L(t,n,e){var r=B(t,n,e);return r<=0?0:r>=1?1:r}function C(t,n,e){return 0===t?n:1===t?e:{x:B(t,n.x,e.x),y:B(t,n.y,e.y)}}function V(t,n,e){var r=function(t,n,e){return Math.round(B(t,n,e))}(t,n,e);return r<=0?0:r>=255?255:r}function G(t,n,e){return 0===t?n:1===t?e:{r:V(t,n.r,e.r),g:V(t,n.g,e.g),b:V(t,n.b,e.b),a:B(t,null==n.a?1:n.a,null==e.a?1:e.a)}}function z(t,n){for(var e=[],r=0;r<t;r++)e.push(n);return e}function Y(t,n){if(--n<=0)return t;var e=(t=Object.assign([],t)).length;do{for(var r=0;r<e;r++)t.push(t[r])}while(--n>0);return t}var $,U=function(){function t(n){r(this,t),this.list=n,this.length=n.length}return o(t,[{key:"setAttribute",value:function(t,n){for(var e=this.list,r=0;r<this.length;r++)e[r].setAttribute(t,n)}},{key:"removeAttribute",value:function(t){for(var n=this.list,e=0;e<this.length;e++)n[e].removeAttribute(t)}},{key:"style",value:function(t,n){for(var e=this.list,r=0;r<this.length;r++)e[r].style[t]=n}}]),t}(),Q=/-./g,H=function(t,n){return n.toUpperCase()};function J(t){return"function"==typeof t?t:q}function Z(t){return t?"function"==typeof t?t:Array.isArray(t)?function(t){var n=arguments.length>1&&void 0!==arguments[1]?arguments[1]:w;if(!Array.isArray(t))return n;switch(t.length){case 1:return S(t[0])||n;case 2:return S(t[0],t[1])||n;case 4:return _(t[0],t[1],t[2],t[3])||n}return n}(t,null):function(t,n){var e=arguments.length>2&&void 0!==arguments[2]?arguments[2]:w;switch(t){case"linear":return w;case"steps":return S(n.steps||1,n.jump||0)||e;case"bezier":case"cubic-bezier":return _(n.x1||0,n.y1||0,n.x2||0,n.y2||0)||e}return e}(t.type,t.value,null):null}function K(t,n,e){var r=arguments.length>3&&void 0!==arguments[3]&&arguments[3],i=n.length-1;if(t<=n[0].t)return r?[0,0,n[0].v]:n[0].v;if(t>=n[i].t)return r?[i,1,n[i].v]:n[i].v;var o,u=n[0],a=null;for(o=1;o<=i;o++){if(!(t>n[o].t)){a=n[o];break}u=n[o]}return null==a?r?[i,1,n[i].v]:n[i].v:u.t===a.t?r?[o,1,a.v]:a.v:(t=(t-u.t)/(a.t-u.t),u.e&&(t=u.e(t)),r?[o,t,e(t,u.v,a.v)]:e(t,u.v,a.v))}function W(t,n){var e=arguments.length>2&&void 0!==arguments[2]?arguments[2]:null;return t&&t.length?"function"!=typeof n?null:("function"!=typeof e&&(e=null),function(r){var i=K(r,t,n);return null!=i&&e&&(i=e(i)),i}):null}function X(t,n){return t.t-n.t}function tt(t,n,r,i,o){var u,a="@"===r[0],l="#"===r[0],s=$[r],f=q;switch(a?(u=r.substr(1),r=u.replace(Q,H)):l&&(r=r.substr(1)),e(s)){case"function":if(f=s(i,o,K,Z,r,a,n,t),l)return f;break;case"string":f=W(i,J(s));break;case"object":if((f=W(i,J(s.i),s.f))&&"function"==typeof s.u)return s.u(n,f,r,a,t)}return f?function(t,n,e){if(arguments.length>3&&void 0!==arguments[3]&&arguments[3])return t instanceof U?function(r){return t.style(n,e(r))}:function(r){return t.style[n]=e(r)};if(Array.isArray(n)){var r=n.length;return function(i){var o=e(i);if(null==o)for(var u=0;u<r;u++)t[u].removeAttribute(n);else for(var a=0;a<r;a++)t[a].setAttribute(n,o)}}return function(r){var i=e(r);null==i?t.removeAttribute(n):t.setAttribute(n,i)}}(n,r,f,a):null}function nt(t,n,r,i){if(!i||"object"!==e(i))return null;var o=null,u=null;return Array.isArray(i)?u=function(t){if(!t||!t.length)return null;for(var n=0;n<t.length;n++)t[n].e&&(t[n].e=Z(t[n].e));return t.sort(X)}(i):(u=i.keys,o=i.data||null),u?tt(t,n,r,u,o):null}function et(t,n,e){if(!e)return null;var r=[];for(var i in e)if(e.hasOwnProperty(i)){var o=nt(t,n,i,e[i]);o&&r.push(o)}return r.length?r:null}function rt(t,n){if(!n.settings.duration||n.settings.duration<0)return null;var e,r,i,o,u,a=function(t,n){if(!n)return null;var e=[];if(Array.isArray(n))for(var r=n.length,i=0;i<r;i++){var o=n[i];if(2===o.length){var u=null;if("string"==typeof o[0])u=t.getElementById(o[0]);else if(Array.isArray(o[0])){u=[];for(var a=0;a<o[0].length;a++)if("string"==typeof o[0][a]){var l=t.getElementById(o[0][a]);l&&u.push(l)}u=u.length?1===u.length?u[0]:new U(u):null}if(u){var s=et(t,u,o[1]);s&&(e=e.concat(s))}}}else for(var f in n)if(n.hasOwnProperty(f)){var c=t.getElementById(f);if(c){var h=et(t,c,n[f]);h&&(e=e.concat(h))}}return e.length?e:null}(t,n.elements);return a?(e=a,r=n.settings,i=r.duration,o=e.length,u=null,function(t,n){var a=r.iterations||1/0,l=(r.alternate&&a%2==0)^r.direction>0?i:0,s=t%i,f=1+(t-s)/i;n*=r.direction,r.alternate&&f%2==0&&(n=-n);var c=!1;if(f>a)s=l,c=!0,-1===r.fill&&(s=r.direction>0?0:i);else if(n<0&&(s=i-s),s===u)return!1;u=s;for(var h=0;h<o;h++)e[h](s);return c}):null}function it(t,n){for(var e=n.querySelectorAll("svg"),r=0;r<e.length;r++)if(e[r].id===t.root&&!e[r].svgatorAnimation)return e[r].svgatorAnimation=!0,e[r];return null}function ot(t){var n=function(t){return t.shadowRoot};return document?Array.from(t.querySelectorAll(":not("+["a","area","audio","br","canvas","circle","datalist","embed","g","head","hr","iframe","img","input","link","object","path","polygon","rect","script","source","style","svg","title","track","video"].join()+")")).filter(n).map(n):[]}function ut(t){var n=arguments.length>1&&void 0!==arguments[1]?arguments[1]:document,e=arguments.length>2&&void 0!==arguments[2]?arguments[2]:0,r=it(t,n);if(r)return r;if(e>=20)return null;for(var i=ot(n),o=0;o<i.length;o++){var u=ut(t,i[o],e+1);if(u)return u}return null}function at(t,n){if($=n,!t||!t.root||!Array.isArray(t.animations))return null;var e=ut(t);if(!e)return null;var r=t.animations.map((function(t){return rt(e,t)})).filter((function(t){return!!t}));return r.length?{svg:e,animations:r,animationSettings:t.animationSettings,options:t.options||void 0}:null}function lt(t){var n=arguments.length>1&&void 0!==arguments[1]?arguments[1]:null,e=arguments.length>2&&void 0!==arguments[2]?arguments[2]:Number,r=arguments.length>3&&void 0!==arguments[3]?arguments[3]:"undefined"!=typeof BigInt&&BigInt,i="0x"+(t.replace(/[^0-9a-fA-F]+/g,"")||27);return n&&r&&e.isSafeInteger&&!e.isSafeInteger(+i)?e(r(i))%n+n:+i}function st(t,n,e){return!t||!e||n>t.length?t:t.substring(0,n)+st(t.substring(n+1),e,e)}function ft(t){var n=arguments.length>1&&void 0!==arguments[1]?arguments[1]:27;return!t||t%n?t%n:[0,1].includes(n)?n:ft(t/n,n)}function ct(t,n,e){if(t&&t.length){var r=lt(e),i=ft(r)+5,o=st(t,ft(r,5),i);return o=o.replace(/\x7c$/g,"==").replace(/\x2f$/g,"="),o=function(t,n,e){var r=+("0x"+t.substring(0,4));t=t.substring(4);for(var i=lt(n,r)%r+e%27,o=[],u=0;u<t.length;u+=2)if("|"!==t[u]){var a=+("0x"+t[u]+t[u+1])-i;o.push(a)}else{var l=+("0x"+t.substring(u+1,u+1+4))-i;u+=3,o.push(l)}return String.fromCharCode.apply(String,o)}(o=(o=atob(o)).replace(/[\x41-\x5A]/g,""),n,r),o=JSON.parse(o)}}var ht=[{key:"alternate",def:!1},{key:"fill",def:1},{key:"iterations",def:0},{key:"direction",def:1},{key:"speed",def:1},{key:"fps",def:100}],vt=function(){function t(n,e){var i=this,o=arguments.length>2&&void 0!==arguments[2]?arguments[2]:null;r(this,t),this._id=0,this._running=!1,this._rollingBack=!1,this._animations=n,this._settings=e,(!o||o<"2022-05-02")&&delete this._settings.speed,ht.forEach((function(t){i._settings[t.key]=i._settings[t.key]||t.def})),this.duration=e.duration,this.offset=e.offset||0,this.rollbackStartOffset=0}return o(t,[{key:"alternate",get:function(){return this._settings.alternate}},{key:"fill",get:function(){return this._settings.fill}},{key:"iterations",get:function(){return this._settings.iterations}},{key:"direction",get:function(){return this._settings.direction}},{key:"speed",get:function(){return this._settings.speed}},{key:"fps",get:function(){return this._settings.fps}},{key:"maxFiniteDuration",get:function(){return this.iterations>0?this.iterations*this.duration:this.duration}},{key:"_apply",value:function(t){for(var n=arguments.length>1&&void 0!==arguments[1]?arguments[1]:{},e=this._animations,r=e.length,i=0,o=0;o<r;o++)n[o]?i++:(n[o]=e[o](t,1),n[o]&&i++);return i}},{key:"_rollback",value:function(t){var n=this,e=1/0,r=null;this.rollbackStartOffset=t,this._rollingBack=!0,this._running=!0;this._id=window.requestAnimationFrame((function i(o){if(n._rollingBack){null==r&&(r=o);var u=Math.round(t-(o-r)*n.speed);if(u>n.duration&&e!==1/0){var a=!!n.alternate&&u/n.duration%2>1,l=u%n.duration;u=(l+=a?n.duration:0)||n.duration}var s=(n.fps?1e3/n.fps:0)*n.speed,f=Math.max(0,u);f<=e-s&&(n.offset=f,e=f,n._apply(f));var c=n.iterations>0&&-1===n.fill&&u>=n.maxFiniteDuration;(u<=0||n.offset<u||c)&&n.stop(),n._id=window.requestAnimationFrame(i)}}))}},{key:"_start",value:function(){var t=this,n=arguments.length>0&&void 0!==arguments[0]?arguments[0]:0,e=-1/0,r=null,i={};this._running=!0;var o=function o(u){null==r&&(r=u);var a=Math.round((u-r)*t.speed+n),l=(t.fps?1e3/t.fps:0)*t.speed;if(a>=e+l&&!t._rollingBack&&(t.offset=a,e=a,t._apply(a,i)===t._animations.length))return void t.pause(!0);t._id=window.requestAnimationFrame(o)};this._id=window.requestAnimationFrame(o)}},{key:"_pause",value:function(){this._id&&window.cancelAnimationFrame(this._id),this._running=!1}},{key:"play",value:function(){if(!this._running)return this._rollingBack?this._rollback(this.offset):this._start(this.offset)}},{key:"stop",value:function(){this._pause(),this.offset=0,this.rollbackStartOffset=0,this._rollingBack=!1,this._apply(0)}},{key:"reachedToEnd",value:function(){return this.iterations>0&&this.offset>=this.iterations*this.duration}},{key:"restart",value:function(){var t=arguments.length>0&&void 0!==arguments[0]&&arguments[0];this.stop(t),this.play(t)}},{key:"pause",value:function(){this._pause()}},{key:"reverse",value:function(){this.direction=-this.direction}}],[{key:"build",value:function(t,n){delete t.animationSettings,t.options=ct(t.options,t.root,"5c7f360c"),t.animations.map((function(n){n.settings=ct(n.s,t.root,"5c7f360c"),delete n.s,t.animationSettings||(t.animationSettings=n.settings)}));var e=t.version;if(!(t=at(t,n)))return null;var r=t.options||{},i=new this(t.animations,t.animationSettings,e);return{el:t.svg,options:r,player:i}}},{key:"push",value:function(t){return this.build(t)}},{key:"init",value:function(){var t=this,n=window.__SVGATOR_PLAYER__&&window.__SVGATOR_PLAYER__["5c7f360c"];Array.isArray(n)&&n.splice(0).forEach((function(n){return t.build(n)}))}}]),t}();function yt(t){return p(t)+""}function gt(t){var n=arguments.length>1&&void 0!==arguments[1]?arguments[1]:" ";return t&&t.length?t.map(yt).join(n):""}function dt(t){if(!t)return"transparent";if(null==t.a||t.a>=1){var n=function(t){return 1===(t=parseInt(t).toString(16)).length?"0"+t:t},e=function(t){return t.charAt(0)===t.charAt(1)},r=n(t.r),i=n(t.g),o=n(t.b);return e(r)&&e(i)&&e(o)&&(r=r.charAt(0),i=i.charAt(0),o=o.charAt(0)),"#"+r+i+o}return"rgba("+t.r+","+t.g+","+t.b+","+t.a+")"}function pt(t){return t?"url(#"+t+")":"none"}!function(){for(var t=0,n=["ms","moz","webkit","o"],e=0;e<n.length&&!window.requestAnimationFrame;++e)window.requestAnimationFrame=window[n[e]+"RequestAnimationFrame"],window.cancelAnimationFrame=window[n[e]+"CancelAnimationFrame"]||window[n[e]+"CancelRequestAnimationFrame"];window.requestAnimationFrame||(window.requestAnimationFrame=function(n){var e=Date.now(),r=Math.max(0,16-(e-t)),i=window.setTimeout((function(){n(e+r)}),r);return t=e+r,i},window.cancelAnimationFrame=window.clearTimeout)}();var mt={f:null,i:function(t,n,e){return 0===t?n:1===t?e:{x:D(t,n.x,e.x),y:D(t,n.y,e.y)}},u:function(t,n){return function(e){var r=n(e);t.setAttribute("rx",yt(r.x)),t.setAttribute("ry",yt(r.y))}}},bt={f:null,i:function(t,n,e){return 0===t?n:1===t?e:{width:D(t,n.width,e.width),height:D(t,n.height,e.height)}},u:function(t,n){return function(e){var r=n(e);t.setAttribute("width",yt(r.width)),t.setAttribute("height",yt(r.height))}}};Object.freeze({M:2,L:2,Z:0,H:1,V:1,C:6,Q:4,T:2,S:4,A:7});var wt={},At=null;function _t(t){var n=function(){if(At)return At;if("object"!==("undefined"==typeof document?"undefined":e(document))||!document.createElementNS)return{};var t=document.createElementNS("http://www.w3.org/2000/svg","svg");return t&&t.style?(t.style.position="absolute",t.style.opacity="0.01",t.style.zIndex="-9999",t.style.left="-9999px",t.style.width="1px",t.style.height="1px",At={svg:t}):{}}().svg;if(!n)return function(t){return null};var r=document.createElementNS(n.namespaceURI,"path");r.setAttributeNS(null,"d",t),r.setAttributeNS(null,"fill","none"),r.setAttributeNS(null,"stroke","none"),n.appendChild(r);var i=r.getTotalLength();return function(t){var n=r.getPointAtLength(i*t);return{x:n.x,y:n.y}}}function xt(t){return wt[t]?wt[t]:wt[t]=_t(t)}function kt(t,n,e,r){if(!t||!r)return!1;var i=["M",t.x,t.y];if(n&&e&&(i.push("C"),i.push(n.x),i.push(n.y),i.push(e.x),i.push(e.y)),n?!e:e){var o=n||e;i.push("Q"),i.push(o.x),i.push(o.y)}return n||e||i.push("L"),i.push(r.x),i.push(r.y),i.join(" ")}function St(t,n,e,r){var i=arguments.length>4&&void 0!==arguments[4]?arguments[4]:1,o=kt(t,n,e,r),u=xt(o);try{return u(i)}catch(t){return null}}function Ot(t,n,e){return t+(n-t)*e}function jt(t,n,e){var r=arguments.length>3&&void 0!==arguments[3]&&arguments[3],i={x:Ot(t.x,n.x,e),y:Ot(t.y,n.y,e)};return r&&(i.a=Mt(t,n)),i}function Mt(t,n){return Math.atan2(n.y-t.y,n.x-t.x)}function Et(t,n,e,r){var i=1-r;return i*i*t+2*i*r*n+r*r*e}function Pt(t,n,e,r){return 2*(1-r)*(n-t)+2*r*(e-n)}function It(t,n,e,r){var i=arguments.length>4&&void 0!==arguments[4]&&arguments[4],o=St(t,n,null,e,r);return o||(o={x:Et(t.x,n.x,e.x,r),y:Et(t.y,n.y,e.y,r)}),i&&(o.a=Rt(t,n,e,r)),o}function Rt(t,n,e,r){return Math.atan2(Pt(t.y,n.y,e.y,r),Pt(t.x,n.x,e.x,r))}function Ft(t,n,e,r,i){var o=i*i;return i*o*(r-t+3*(n-e))+3*o*(t+e-2*n)+3*i*(n-t)+t}function Nt(t,n,e,r,i){var o=1-i;return 3*(o*o*(n-t)+2*o*i*(e-n)+i*i*(r-e))}function Tt(t,n,e,r,i){var o=arguments.length>5&&void 0!==arguments[5]&&arguments[5],u=St(t,n,e,r,i);return u||(u={x:Ft(t.x,n.x,e.x,r.x,i),y:Ft(t.y,n.y,e.y,r.y,i)}),o&&(u.a=qt(t,n,e,r,i)),u}function qt(t,n,e,r,i){return Math.atan2(Nt(t.y,n.y,e.y,r.y,i),Nt(t.x,n.x,e.x,r.x,i))}function Bt(t,n,e){var r=arguments.length>3&&void 0!==arguments[3]&&arguments[3];if(Lt(n)){if(Ct(e))return It(n,e.start,e,t,r)}else if(Lt(e)){if(Vt(n))return It(n,n.end,e,t,r)}else{if(Vt(n))return Ct(e)?Tt(n,n.end,e.start,e,t,r):It(n,n.end,e,t,r);if(Ct(e))return It(n,e.start,e,t,r)}return jt(n,e,t,r)}function Dt(t,n,e){var r=Bt(t,n,e,!0);return r.a=function(t){return arguments.length>1&&void 0!==arguments[1]&&arguments[1]?t+Math.PI:t}(r.a)/b,r}function Lt(t){return!t.type||"corner"===t.type}function Ct(t){return null!=t.start&&!Lt(t)}function Vt(t){return null!=t.end&&!Lt(t)}var Gt=new T;var zt={f:yt,i:B},Yt={f:yt,i:L};function $t(t,n,e){return t.map((function(t){return function(t,n,e){var r=t.v;if(!r||"g"!==r.t||r.s||!r.v||!r.r)return t;var i=e.getElementById(r.r),o=i&&i.querySelectorAll("stop")||[];return r.s=r.v.map((function(t,n){var e=o[n]&&o[n].getAttribute("offset");return{c:t,o:e=p(parseInt(e)/100)}})),delete r.v,t}(t,0,e)}))}var Ut={gt:"gradientTransform",c:{x:"cx",y:"cy"},rd:"r",f:{x:"x1",y:"y1"},to:{x:"x2",y:"y2"}};function Qt(t,n,r,i,o,u,a,l){return $t(t,0,l),n=function(t,n,e){for(var r,i,o,u=t.length-1,a={},l=0;l<=u;l++)(r=t[l]).e&&(r.e=n(r.e)),r.v&&"g"===(i=r.v).t&&i.r&&(o=e.getElementById(i.r))&&(a[i.r]={e:o,s:o.querySelectorAll("stop")});return a}(t,i,l),function(i){var o=r(i,t,Ht);if(!o)return"none";if("c"===o.t)return dt(o.v);if("g"===o.t){if(!n[o.r])return pt(o.r);var u=n[o.r];return function(t,n){for(var e=t.s,r=e.length;r<n.length;r++){var i=e[e.length-1].cloneNode();i.id=Kt(i.id),t.e.appendChild(i),e=t.s=t.e.querySelectorAll("stop")}for(var o=0,u=e.length,a=n.length-1;o<u;o++)e[o].setAttribute("stop-color",dt(n[Math.min(o,a)].c)),e[o].setAttribute("offset",n[Math.min(o,a)].o)}(u,o.s),Object.keys(Ut).forEach((function(t){if(void 0!==o[t])if("object"!==e(Ut[t])){var n,r="gt"===t?(n=o[t],Array.isArray(n)?"matrix("+n.join(" ")+")":""):o[t],i=Ut[t];u.e.setAttribute(i,r)}else Object.keys(Ut[t]).forEach((function(n){if(void 0!==o[t][n]){var e=o[t][n],r=Ut[t][n];u.e.setAttribute(r,e)}}))})),pt(o.r)}return"none"}}function Ht(t,e,r){if(0===t)return e;if(1===t)return r;if(e&&r){var i=e.t;if(i===r.t)switch(e.t){case"c":return{t:i,v:G(t,e.v,r.v)};case"g":if(e.r===r.r){var o={t:i,s:Jt(t,e.s,r.s),r:e.r};return e.gt&&r.gt&&(o.gt=function(t,n,e){var r=n.length;if(r!==e.length)return q(t,n,e);for(var i=new Array(r),o=0;o<r;o++)i[o]=B(t,n[o],e[o]);return i}(t,e.gt,r.gt)),e.c?(o.c=C(t,e.c,r.c),o.rd=D(t,e.rd,r.rd)):e.f&&(o.f=C(t,e.f,r.f),o.to=C(t,e.to,r.to)),o}}if("c"===e.t&&"g"===r.t||"c"===r.t&&"g"===e.t){var u="c"===e.t?e:r,a="g"===e.t?n({},e):n({},r),l=a.s.map((function(t){return{c:u.v,o:t.o}}));return a.s="c"===e.t?Jt(t,l,a.s):Jt(t,a.s,l),a}}return q(t,e,r)}function Jt(t,n,e){if(n.length===e.length)return n.map((function(n,r){return Zt(t,n,e[r])}));for(var r=Math.max(n.length,e.length),i=[],o=0;o<r;o++){var u=Zt(t,n[Math.min(o,n.length-1)],e[Math.min(o,e.length-1)]);i.push(u)}return i}function Zt(t,n,e){return{o:L(t,n.o,e.o||0),c:G(t,n.c,e.c||{})}}function Kt(t){return t.replace(/-fill-([0-9]+)$/,(function(t,n){return"-fill-"+(+n+1)}))}var Wt={fill:Qt,"fill-opacity":Yt,stroke:Qt,"stroke-opacity":Yt,"stroke-width":zt,"stroke-dashoffset":{f:yt,i:B},"stroke-dasharray":{f:function(t){var n=arguments.length>1&&void 0!==arguments[1]?arguments[1]:" ";return t&&t.length>0&&(t=t.map((function(t){return p(t,4)}))),gt(t,n)},i:function(t,n,e){var r,i,o,u=n.length,a=e.length;if(u!==a)if(0===u)n=z(u=a,0);else if(0===a)a=u,e=z(u,0);else{var l=(o=(r=u)*(i=a)/function(t,n){for(var e;n;)e=n,n=t%n,t=e;return t||1}(r,i))<0?-o:o;n=Y(n,Math.floor(l/u)),e=Y(e,Math.floor(l/a)),u=a=l}for(var s=[],f=0;f<u;f++)s.push(p(D(t,n[f],e[f])));return s}},opacity:Yt,transform:function(t,n,r,i){if(!(t=function(t,n){if(!t||"object"!==e(t))return null;var r=!1;for(var i in t)t.hasOwnProperty(i)&&(t[i]&&t[i].length?(t[i].forEach((function(t){t.e&&(t.e=n(t.e))})),r=!0):delete t[i]);return r?t:null}(t,i)))return null;var o=function(e,i,o){var u=arguments.length>3&&void 0!==arguments[3]?arguments[3]:null;return t[e]?r(i,t[e],o):n&&n[e]?n[e]:u};return n&&n.a&&t.o?function(n){var e=r(n,t.o,Dt);return Gt.recomposeSelf(e,o("r",n,B,0)+e.a,o("k",n,C),o("s",n,C),o("t",n,C)).toString()}:function(t){return Gt.recomposeSelf(o("o",t,Bt,null),o("r",t,B,0),o("k",t,C),o("s",t,C),o("t",t,C)).toString()}},r:zt,"#size":bt,"#radius":mt,_:function(t,n){if(Array.isArray(t))for(var e=0;e<t.length;e++)this[t[e]]=n;else this[t]=n}},Xt=function(t){!function(t,n){if("function"!=typeof n&&null!==n)throw new TypeError("Super expression must either be null or a function");t.prototype=Object.create(n&&n.prototype,{constructor:{value:t,writable:!0,configurable:!0}}),n&&l(t,n)}(u,t);var n,e,i=(n=u,e=s(),function(){var t,r=a(n);if(e){var i=a(this).constructor;t=Reflect.construct(r,arguments,i)}else t=r.apply(this,arguments);return c(this,t)});function u(){return r(this,u),i.apply(this,arguments)}return o(u,null,[{key:"build",value:function(t){var n=h(a(u),"build",this).call(this,t,Wt);if(!n)return null;n.el,n.options,function(t,n,e){t.play()}(n.player)}}]),u}(vt);return Xt.init(),Xt}));
(function(s,i,o,w,d,a,b){w[o]=w[o]||{};w[o][s]=w[o][s]||[];w[o][s].push(i);})('5c7f360c',{"root":"epVWe9bOdzQ1","version":"2022-05-04","animations":[{"elements":{"epVWe9bOdzQ12":{"transform":{"data":{"o":{"x":143.979985,"y":97.62,"type":"corner"},"t":{"x":-143.979985,"y":-97.62}},"keys":{"s":[{"t":0,"v":{"x":1,"y":1}},{"t":500,"v":{"x":1,"y":0.751512}}]}}},"epVWe9bOdzQ14":{"transform":{"data":{"t":{"x":-143.995005,"y":-244.480003}},"keys":{"o":[{"t":0,"v":{"x":143.995005,"y":99.629996,"type":"corner"}},{"t":480,"v":{"x":143.995005,"y":244.480003,"type":"corner"}}]}}},"epVWe9bOdzQ16":{"transform":{"data":{"o":{"x":144.040015,"y":62.364551,"type":"corner"},"t":{"x":-144,"y":-56.110002}},"keys":{"s":[{"t":0,"v":{"x":1,"y":-0.028199}},{"t":100,"v":{"x":1,"y":-0.14448}},{"t":200,"v":{"x":1,"y":-0.260777}},{"t":300,"v":{"x":1,"y":-0.377041}},{"t":400,"v":{"x":1,"y":-0.493356}},{"t":500,"v":{"x":1,"y":-0.584426}}]}}},"epVWe9bOdzQ30":{"transform":{"data":{"t":{"x":-144.000008,"y":-53.725}},"keys":{"o":[{"t":0,"v":{"x":144.000011,"y":53.725,"type":"corner"}},{"t":500,"v":{"x":144.000011,"y":65.235,"type":"corner"}}]}}},"epVWe9bOdzQ35":{"transform":{"data":{"t":{"x":-144.005444,"y":-143.997169}},"keys":{"o":[{"t":200,"v":{"x":144.005444,"y":131.842853,"type":"corner"}},{"t":600,"v":{"x":144.005444,"y":144.000011,"type":"corner"}}]}},"opacity":[{"t":280,"v":0},{"t":300,"v":0},{"t":1000,"v":1}]}},"s":"MFDA1ZGM4NmZiMWMyS2OJmYWVjMWI2YmNiYjZSmODc3ZTdkN2Q3ZDc5CNmZiMWI2YmZiMmIwYWzFiNmJjYmI2Zjg3N2RU3OTZmYjZjMWIyUmJPmYWVjMWI2YmNSYmJjDMDZmODc3ZTc5NmZiMV2I2YjlNYjk2Zk04N1EQ3ZTc5NmZhZWI5YzFViMmJmYmJhZWMxYjI2XZjg3YjNhZWI5YzBiMKjc5NmZjMGJkYjJJYjUJiMTZmODc3ZTc5VzZMmYjNiZGMwNmZUODc3EZUs3ZDdkY2E/"}],"options":"MPDAxMDg4U0wyZlk4MDAgxNmU3ZjgxMmY0N1IByZjc5N2M2ZTcxMmZNBOGE/"},'__SVGATOR_PLAYER__',window,document)
]]></script>
</svg>
