<?xml version="1.0" encoding="UTF-8"?>
<svg xmlns="http://www.w3.org/2000/svg" viewBox="0 0 288 288">
  <defs>
    <style>
      .cls-1 {
        fill: #f8ac1e;
      }

      .cls-1, .cls-2, .cls-3, .cls-4, .cls-5, .cls-6, .cls-7, .cls-8, .cls-9, .cls-10, .cls-11, .cls-12, .cls-13, .cls-14, .cls-15, .cls-16, .cls-17, .cls-18, .cls-19, .cls-20, .cls-21 {
        stroke-width: 0px;
      }

      .cls-2 {
        fill: #f9bd1e;
      }

      .cls-3 {
        fill: #5ca880;
      }

      .cls-4 {
        fill: #546f7a;
      }

      .cls-5 {
        fill: #313131;
      }

      .cls-6 {
        fill: #385661;
      }

      .cls-7 {
        fill: #2f2f2f;
      }

      .cls-8 {
        fill: #1b8040;
      }

      .cls-9 {
        fill: #c3d2d8;
      }

      .cls-10 {
        fill: #e09c3d;
      }

      .cls-11 {
        fill: #be694f;
      }

      .cls-12 {
        fill: #d9a12b;
      }

      .cls-13 {
        fill: #b5cacf;
      }

      .cls-14 {
        fill: #b6cbd0;
      }

      .cls-15 {
        fill: #303030;
      }

      .cls-16 {
        fill: #b9cbcf;
      }

      .cls-17 {
        fill: #fce5b3;
      }

      .cls-18 {
        fill: #739d9f;
      }

      .cls-19 {
        fill: #739ea0;
      }

      .cls-20 {
        fill: #fcd680;
      }

      .cls-21 {
        fill: #fcfcfc;
      }
    </style>
  </defs>
  <g id="String">
    <g>
      <path class="cls-12" d="m155.62,11.63c0,.68-.06,1.35-.17,1.99-.49,2.88-2.05,5.39-4.26,7.11-1.98,1.58-4.48,2.51-7.19,2.51-2.08,0-4.02-.59-5.71-1.55,7.69-4.13,9.97-10.39,7.38-21.55,1.39.21,2.69.68,3.89,1.34,3.6,1.97,6.07,5.76,6.07,10.15Z"/>
      <path class="cls-1" d="m145.66.14c2.59,11.15.31,17.42-7.38,21.55-.51-.29-.99-.61-1.44-.97-2.21-1.73-3.79-4.22-4.28-7.1-.13-.64-.18-1.31-.18-1.99C132.38,5.21,137.58,0,143.99,0c.56,0,1.13.05,1.67.14Z"/>
      <path class="cls-9" d="m155.45,13.62l97.57,49.23h-18.37l-83.46-42.12c2.21-1.73,3.76-4.24,4.26-7.11Z"/>
      <path class="cls-9" d="m132.56,13.62c.49,2.88,2.07,5.38,4.28,7.1L53.36,62.85h-18.38L132.56,13.62Z"/>
    </g>
  </g>
  <g id="Bar">
    <g>
      <path class="cls-11" d="m260.13,74.47c11.07,0,9.97-3.17,10.22-11.63h6.02c6.42,0,11.63,5.2,11.63,11.63s-5.2,11.63-11.63,11.63H11.63c-6.42,0-11.63-5.2-11.63-11.63,0-1.89.49-3.65,1.3-5.23,1.04,5.58,4.37,5.02,11.22,5.23h247.61Z"/>
      <path class="cls-10" d="m267.58,62.85h2.77c-.25,8.46.85,11.63-10.22,11.63H12.52c-6.85-.21-10.19.36-11.22-5.23,1.91-3.78,5.79-6.4,10.32-6.4h255.96Z"/>
    </g>
  </g>
  <g id="Roll">
    <rect class="cls-20" x="29.2" y="51.34" width="229.6" height="46.28"/>
  </g>
  <g id="Middle">
    <g>
      <rect class="cls-17" x="41.59" y="56.11" width="204.82" height="144.85"/>
      <rect class="cls-3" x="246.41" y="56.11" width="12.41" height="144.85"/>
      <rect class="cls-3" x="29.18" y="56.11" width="12.41" height="144.85"/>
    </g>
  </g>
  <g id="Bottom">
    <g>
      <polygon class="cls-3" points="143.97 267.66 258.82 208.54 258.82 200.96 246.41 200.96 143.97 253.7 41.59 200.96 29.18 200.96 29.18 208.54 143.97 267.66"/>
      <path class="cls-9" d="m258.82,208.54v16.26c0,2.82-2.3,5.06-5.06,5.06s-5.11-2.24-5.11-5.06v-11.03l10.17-5.23Z"/>
      <polyline class="cls-17" points="246.41 200.96 143.97 253.7 41.59 200.96"/>
      <path class="cls-9" d="m222.22,227.39v16.49c0,2.82-2.3,5.11-5.06,5.11s-5.06-2.3-5.06-5.11v-11.26l10.11-5.23Z"/>
      <path class="cls-9" d="m185.62,246.23v16.78c0,2.82-2.24,5.06-5.06,5.06s-5.06-2.24-5.06-5.06v-11.61l10.11-5.17Z"/>
      <path class="cls-9" d="m149.09,265.02v17.92c0,2.82-2.3,5.06-5.11,5.06s-5.06-2.24-5.06-5.06v-17.87l5.06,2.59,5.11-2.64Z"/>
      <path class="cls-9" d="m112.49,251.4v11.61c0,2.82-2.3,5.06-5.06,5.06s-5.06-2.24-5.06-5.06v-16.78l10.11,5.17Z"/>
      <path class="cls-9" d="m65.78,227.39l10.11,5.23v11.26c0,2.82-2.24,5.11-5.06,5.11s-5.06-2.3-5.06-5.11v-16.49Z"/>
      <path class="cls-9" d="m39.29,213.77v11.03c0,2.82-2.24,5.06-5.06,5.06s-5.06-2.24-5.06-5.06v-16.26l10.11,5.23Z"/>
    </g>
  </g>
  <g id="Top_Roll" data-name="Top Roll">
    <g>
      <polygon class="cls-8" points="258.82 51.34 258.82 56.11 246.41 56.11 246.41 51.34 253.07 51.34 258.82 51.34"/>
      <polygon class="cls-20" points="246.41 51.34 246.41 56.11 41.59 56.11 41.59 51.34 53.31 51.34 234.69 51.34 246.41 51.34"/>
      <polygon class="cls-8" points="41.59 51.34 41.59 56.11 29.18 56.11 29.18 51.34 34.93 51.34 41.59 51.34"/>
    </g>
  </g>
  <g id="Icon">
    <g>
      <path class="cls-6" d="m173.1,156.99c2.69,0,5.38.04,8.08,0,1.14-.01,2.07.31,2.84,1.18.81.91,1.74,1.71,2.54,2.62,2.55,2.92,5.78,4.22,9.61,4.12.72-.02,1.31.17,1.58.92.31.73-.2,1.01-.72,1.26-.91.43-1.89.67-2.88.76-2.64.25-5.29.56-7.95.18-.59-.09-1.18-.07-1.77-.06-8.13.16-16.25-.17-24.38-.29-4.28-.06-8.57.02-12.85-.18-8.86-.41-17.73.06-26.59-.25-6.98-.24-13.96,0-20.94-.22-2.46-.08-4.95-.01-7.4-.47-.86-.16-1.78-.26-2.26-1.18.22-1.26.58-1.58,1.81-1.54.84.03,1.69.15,2.53.14,2.6-.04,4.49-1.46,6.12-3.31.97-1.1,1.92-2.24,2.77-3.43.42-.59.86-.78,1.55-.77,3.13.05,6.26.05,9.39.07.82-.59,1.74-.37,2.62-.27.83.1,1.65.19,2.49.16,1.9-.06,3.8-.04,5.7-.03,1.33.06,2.67-.11,3.99.09.94.29,1.9.13,2.85.13,1.58,0,3.16,0,4.74,0,1.61,0,1.63-.02,1.64-1.68,0-.73-.03-1.47.02-2.2.03-.42-.04-.91.48-1.13.46.33.38.84.39,1.3.03.8,0,1.6.01,2.4.02,1.21.1,1.29,1.31,1.33.18,0,.36,0,.55.02.6-.02,1.19-.02,1.79,0,.8-.02,1.6-.03,2.4,0,.6-.02,1.2-.03,1.8.08.86.2,1.73.1,2.6.15,6.88.17,13.76-.21,20.64-.24.98.06,2.01-.28,2.92.35Z"/>
      <path class="cls-6" d="m103.45,139.92c-.34-1.38.11-2,1.46-1.97.54.02,1.1.12,1.62.27,4.13,1.18,7.72.11,10.53-2.98,1.31-1.44,2.67-1.86,4.43-1.74.44.03.88,0,1.32-.01,1.14-.69,2.38-.25,3.58-.34,6.67-.07,13.35-.2,20.01.03,5.05.18,10.09,0,15.14.19,1.28.09,2.6-.32,3.83.32,1.55.01,3.09.06,4.64.03.63-.01,1.03.19,1.36.71.54.84,1.16,1.62,1.88,2.3,2.29,2.17,5.02,2.37,7.94,1.75,1.19-.25,2.41-.57,3.26.73.29.76,0,1.39-.53,1.9-1.09,1.03-2.26,1.74-3.89,1.82-8.46.41-16.91.05-25.37.2-1.36.03-2.38-.32-3.24-1.45-1.28-1.67-2.73-3.2-4.1-4.8-.68-.79-1.45-1.47-2.3-2.07-.7-.5-1.31-.47-2.02.03-1.26.9-2.12,2.15-3.15,3.26-1.15,1.25-2.28,2.52-3.33,3.85-.62.79-1.36,1.16-2.38,1.16-4.06-.03-8.14.14-12.19-.06-3.25-.16-6.5-.05-9.74-.19-2.44-.11-4.86-.34-7.08-1.55-.66-.36-1.26-.75-1.68-1.39Z"/>
      <path class="cls-6" d="m113.3,118.61c.02-1.48.78-2.1,2.17-1.79,4.95,1.12,7.53-.23,9.51-4.97.07-.17.14-.34.22-.51.2-.33.55-.32.87-.38,1.21-.22,1.6-.65,1.7-1.89.04-.44,0-.88.03-1.32.06-1.37.51-1.65,1.82-1.15,9.43,0,18.85,0,28.28,0,.48-.31,1-.39,1.43-.01.44.39.16.89.03,1.34-.7,2.46.02,3.23,2.54,2.7.32-.07.63-.25.96-.07.84,1.42,1.75,2.8,2.88,4.02,1.9,2.07,4.24,2.95,7.03,2.54.62-.09,1.29-.26,1.71.37.45.69-.04,1.24-.42,1.77-1.09,1.52-2.67,1.91-4.43,2.09-3.13.32-6.27.09-9.4.21-1.56.06-2.75-.46-3.82-1.59-1.09-1.15-2.14-2.34-3.22-3.51-.95-1.02-2.09-1.55-3.43-1.53-2.14.02-4.27-.32-6.41-.27-1.7.04-3.38.29-5.08.28-.95,0-1.77.42-2.45,1.12-1.24,1.27-2.4,2.6-3.56,3.94-.78.9-1.67,1.65-2.88,1.69-3.24.1-6.49.28-9.73-.11-1.98-.24-3.71-1.19-5.47-2.05-.4-.2-.7-.54-.89-.96Z"/>
      <path class="cls-4" d="m103.45,139.92c2.58,1.96,5.59,2.53,8.72,2.63,1.96.06,3.92-.07,5.88.03,5.42.28,10.85.17,16.27.23.79,0,1.32-.27,1.8-.84,1.74-2.05,3.39-4.18,5.27-6.09,2.53-2.57,2.62-2.61,5.22-.12,2.01,1.92,3.71,4.18,5.53,6.3.41.48.83.74,1.5.74,7.95-.02,15.89,0,23.84-.04,1.17,0,2.34-.18,3.52-.22,1.41-.05,3.39-2.05,3.45-3.34.49,1.09,0,1.92-.76,2.62-2.31,2.15-4.66,4.26-6.98,6.41-1.21,1.12-2.39,2.28-3.59,3.42-.65-.16-.52-.72-.54-1.16-.05-1.28,0-2.57-.02-3.85-.01-1.44-.07-1.51-1.47-1.52-.48,0-.95,0-1.43-.02-4.6.02-9.21,0-13.83.02.02.6.41.77.61,1.05,2.27,2.53,5.11,4.35,7.81,6.35,1.69,1.25,3.5,2.34,5.2,3.59.26.29.81.32.8.86-6.96.08-13.92.36-20.88.22-.04-.15,0-.27.14-.35.52-.27,1.08-.21,1.62-.2,2.17,0,4.34-.05,6.51.03,1.62.07,3.24.02,5.06.05-2.28-1.66-4.38-3.24-6.47-4.85-2.99-2.31-5.59-5.02-8.12-7.8-1.04-1.14-2.02-2.35-3.13-3.43-.8-.77-1.04-.79-1.82.02-2.32,2.37-4.41,4.95-6.81,7.26-3.17,3.06-6.69,5.67-10.23,8.27-.33.25-.74.32-1.08.55-1.94,0-3.89,0-5.83,0-.04-.1-.05-.21,0-.31.22-.4.6-.64.95-.9,3.56-2.61,7.01-5.35,10.39-8.18.34-.29.64-.6.94-.93.28-.37.75-.59.89-1.3-4.89.04-9.71-.14-14.54.22-.7.05-1.4.03-2.09.02-.76-.02-1.05.33-1.04,1.07,0,1.29.03,2.57-.02,3.86-.02.44.12.99-.53,1.16-3.34-3.17-6.71-6.32-9.73-9.81-.43-.49-.92-.97-.98-1.69Z"/>
      <path class="cls-4" d="m90,165.4c1.35.89,2.92,1.02,4.45,1.09,7.6.38,15.21.05,22.8.29,9.16.28,18.31-.06,27.46.23,4.35.14,8.71-.08,13.05.21,4.1.27,8.19-.05,12.28.21,5.17.33,10.33.04,15.49.21,1.36.04,2.71.26,4.07.19,2.35-.12,4.71-.13,6.97-.91.52-.18,1.22-.25,1.17-1.09.46.85.27,1.63-.3,2.34-.81,1.01-1.78,1.87-2.75,2.72-2.61,2.28-5.22,4.57-7.83,6.84-.41.36-.87.68-1.31,1.01-.42-.41-.35-.95-.35-1.46-.02-1.74-.02-3.47,0-5.21,0-.9-.38-1.24-1.26-1.24-2.29.01-4.58-.08-6.87,0-6.98.02-13.96.19-20.93-.03-9.63-.31-19.26.08-28.89-.22-7.12-.22-14.24-.05-21.36-.21-.14,0-.28,0-.42,0-.55.04-1.11.01-1.66.02-1.47.01-1.53.07-1.54,1.59,0,1.29.01,2.58,0,3.88,0,.47.05.97-.35,1.35-.61-.1-1.08-.46-1.52-.85-3.06-2.65-6.04-5.39-8.92-8.22-.76-.75-1.42-1.6-1.48-2.74Z"/>
      <path class="cls-4" d="m113.3,118.61c2.6,1.68,5.36,2.91,8.54,2.89,2.25-.01,4.51-.01,6.76,0,1.47.01,2.56-.61,3.51-1.74,1.27-1.52,2.67-2.95,4.03-4.39.54-.58,1.33-.67,2.04-.72,4.3-.28,8.6-.34,12.89.18.81.1,1.37.52,1.88,1.04,1.44,1.48,2.87,2.97,4.27,4.49.6.64,1.3.93,2.15.93,2.73,0,5.47.1,8.2-.05,1.37-.07,2.78-.04,4.14-.53.9-.33,1.58-.91,2.35-1.4-.9,1.86-2.43,3.22-3.76,4.75-1.58,1.81-3.16,3.61-4.73,5.42-.65-.18-.5-.74-.52-1.18-.05-1.07-.04-2.14-.01-3.21.02-.88-.31-1.31-1.23-1.26-.74.04-1.48,0-2.21,0-1.47-.02-2.94.09-4.41-.08-1.67-.6-2.71-1.98-3.87-3.21-.38-.4-.73-.83-1.1-1.24-.97-1.07-2.09-1.61-3.6-1.53-1.98.11-3.96-.26-5.95-.22-1.37.03-2.72.16-4.08.26-.68.05-1.14.45-1.61.88-1.34,1.22-2.39,2.71-3.71,3.94-.49.45-.95.94-1.63,1.1-1.76.18-3.52.07-5.28.07-.73.04-1.46.03-2.19.01-.75-.02-1.06.32-1.04,1.05.02.8.02,1.61,0,2.41-.01.47.05.96-.34,1.34-3.06-2.61-6.02-5.31-8.61-8.39-.4-.47-.81-.96-.87-1.63Z"/>
      <path class="cls-16" d="m100.95,189.16c.21-.85.66-5.28.99-5.79.57-.47,1.26-.32,1.91-.35,1.14-.05,1.26-.14,1.27-1.3.02-3.32,0-6.64.01-9.96,0-.58-.08-1.19.35-1.69.08,0,.15,0,.23.01.44.5.34,1.11.34,1.69.01,3.25,0,6.5,0,9.75,0,1.37.1,1.49,1.43,1.47,7.28-.12,14.55.31,21.83.25,8.53-.08,17.07-.14,25.6.02,8.05.15,16.1.18,24.15.19.37,0,.74-.02,1.11,0,.91.05,1.23-.37,1.22-1.26-.02-3.18-.01-6.36,0-9.53,0-.55-.06-1.11.25-1.62.36-.29.44.04.53.26.18.45.14.94.14,1.42,0,3.13,0,6.26,0,9.4,0,1.22.11,1.3,1.33,1.35.62.02,1.26-.03,1.83.32.32.5,1.5,4.59,1.78,5.37"/>
      <path class="cls-2" d="m162.86,110.59c-.81.39-1.65.62-2.56.52-1.34-.14-1.89-.88-1.58-2.2.05-.21.14-.42.21-.63q.54-1.53-1.04-1.66c.39-.88.71-1.77.85-2.72.16-1.04-.13-1.84-1.13-2.25-.81-.33-.71-.8-.32-1.38.81-1.19,2.4-2.15,3.79-.67.44.47.64.15.97-.09,1.42-1.05,3.17-.73,3.86.7.29.6.34,1.14-.36,1.49-1.03.52-1.19,1.38-1.05,2.42.1.76.12,1.54.16,2.31.07,1.67-.39,3.13-1.8,4.16Z"/>
      <path class="cls-2" d="m129.62,106.62q-1.54.12-1.54,1.76c0,.33.01.66,0,.99-.07,1.52-.86,2.06-2.88,1.99-1.5-.44-2.03-1.61-2.18-3.01-.16-1.52.07-3.01.51-4.47.43-1.4.16-1.78-1.31-1.85-.69-.03-.67-.39-.58-.88.34-1.81,2.75-2.79,4.18-1.59.64.54.93.4,1.51.03,1.55-.98,3.67,0,3.93,1.75.05.38.11.71-.42.84-1.46.38-2.07,1.3-1.8,2.78.1.57.37,1.11.57,1.67Z"/>
      <path class="cls-19" d="m185.5,183.79c-.98,0-1.97.03-2.95.02-.73,0-.53-.59-.53-.98-.02-3.58-.02-7.16-.03-10.74,0-.39.11-.82-.17-1.18-1.32.29-2.64.13-3.97.1-.32,0-.68-.05-.76-.49,2.51,0,5.02,0,7.53-.02.76,0,.92.38.92,1.04-.01,2.4,0,4.8,0,7.21-.02,1.68-.03,3.35-.05,5.03Z"/>
      <path class="cls-18" d="m105.5,170.07c0,4.04-.05,8.08,0,12.12.01,1-.3,1.3-1.24,1.21-.77-.07-1.54-.03-2.31-.04,0-2.05-.01-4.1-.02-6.15,0-1.99.05-3.98-.01-5.97-.03-.89.18-1.29,1.15-1.2.8.08,1.62.02,2.43.02Z"/>
      <path class="cls-19" d="m119.24,156.54c0,.06-.01.12-.03.19-1.69.14-3.35-.35-5.04-.18,0-1.71,0-3.42-.01-5.13.43-1.36.15-2.76.19-4.13.05-2.29.01-2.29,2.35-2.29.4,0,.81,0,1.21,0,.45.54.32,1.18.33,1.8.05,2.58.04,5.17,0,7.75-.01.88.14,1.59,1,2Z"/>
      <path class="cls-18" d="m170.25,156.97c-.3-.21-.6-.42-.9-.64-.12-.65-.11-1.29.02-1.94.24-2.72.08-5.45.09-8.17,0-.47-.11-.96.09-1.42,1.06.02,2.38-.45,3.1.18.7.61.14,1.95.24,2.97.12,1.23-.25,2.48.22,3.69-.37,1.78-.19,3.56-.02,5.34-.95,0-1.9-.01-2.85-.02Z"/>
      <path class="cls-19" d="m161.56,123.52c.91,0,1.83.02,2.74-.03.84-.05,1.08.33,1.06,1.11-.04,1.28-.02,2.56,0,3.84,0,.35-.13.74.21,1.03-.53,1.38-.22,2.81-.2,4.22-1.26,0-2.53,0-3.79,0-.61-1.07-.38-2.24-.28-3.34.19-2.02.16-4.04.16-6.06,0-.26,0-.52.1-.76Z"/>
      <path class="cls-18" d="m122.78,128.63c0-1.4.04-2.79,0-4.19-.02-.7.17-1.01.92-.96.88.06,1.76.02,2.65.02.33.36.33.8.34,1.24.01,2.49.01,4.97,0,7.46,0,.44,0,.89-.33,1.24-1.18.01-2.36.03-3.55.04-.01-1.62-.02-3.24-.03-4.85Z"/>
      <path class="cls-21" d="m125.04,156.74c2.05-1.56,4.09-3.13,6.14-4.69,3.8-2.91,7.11-6.33,10.24-9.93.56-.64,1.17-1.23,1.73-1.87.64-.74,1.2-.67,1.83.02,1.89,2.08,3.79,4.14,5.7,6.2,3.38,3.66,7.41,6.54,11.4,9.46.39.28.77.58,1.15.87.01.01,0,.06-.02.15h-5.14c-2.18-1.06-3.98-2.63-5.81-4.17-1.55-1.3-3.08-2.63-4.53-4.05-.52-.51-1.06-.76-1.75-.23-1.35,1.05-2.74.98-4.08,0-.7-.51-1.13-.31-1.71.2-2.79,2.46-5.38,5.14-8.34,7.4-.89.68-1.8.93-2.88.69-1.31-.02-2.62-.03-3.92-.05Z"/>
      <path class="cls-14" d="m128.97,156.78c1.24.16,2.16-.46,3.08-1.19,2.87-2.26,5.44-4.86,8.15-7.29.61-.55.97-.75,1.73-.12,1.38,1.15,2.48,1.16,3.91.04.91-.71,1.42-.31,2.04.27,2.47,2.32,4.99,4.59,7.72,6.6.83.61,1.64,1.23,2.47,1.85-2.88,0-5.76.01-8.64.02-.41-.37-.33-.88-.35-1.35-.03-1,0-2-.02-2.99-.02-.61-.34-.85-.92-.83-.56.01-.8.29-.82.83-.03,1,0,2-.02,2.99-.01.47.06.98-.36,1.34-.57,0-1.13.02-1.7.03-.42-.36-.36-.86-.37-1.34-.02-.92,0-1.85-.02-2.77-.02-.69-.39-1.01-1.04-1.02-.72-.02-.69.53-.71,1.01-.03.92,0,1.85-.01,2.77,0,.48.03.97-.34,1.36-.57,0-1.14,0-1.71-.01-.55-.49-.33-1.15-.37-1.75-.03-.51.05-1.02.12-1.52.23-1.68.13-1.8-1.51-1.95-.18-.02-.36-.08-.53-.12-.34,1.52-.07,3.06-.14,4.59-.02.44-.04.78-.63.77-2.9-.04-5.79-.05-8.69-.07-.1,0-.2-.08-.3-.13Z"/>
      <path class="cls-7" d="m146.92,156.94c0-1.54.03-3.08-.02-4.62-.02-.64.21-.8.82-.81,1.66-.03,1.66-.05,1.66,1.59,0,1.28.01,2.57.02,3.85-.02.08-.03.16-.05.24-.81-.13-1.67.26-2.44-.25Z"/>
      <path class="cls-7" d="m142.74,156.98c0-1.55.04-3.1,0-4.65-.02-.68.17-.9.87-.87,1.62.06,1.62.02,1.62,1.64,0,1.29,0,2.58,0,3.88-.83,0-1.66,0-2.49,0Z"/>
      <path class="cls-5" d="m138.73,151.63c.47-.33,1-.09,1.49-.16.67-.1.91.18.89.86-.06,1.54-.06,3.09-.08,4.64q-2.26.06-2.26-2.24c0-1.03-.02-2.06-.04-3.1Z"/>
      <path class="cls-21" d="m126.36,133.45c0-3.31,0-6.63,0-9.94,1.83-.01,3.67-.03,5.5-.04.77-.29,1.57-.34,2.39-.34,6.81.01,13.62,0,20.44,0,.78,0,1.54.04,2.27.36,1.54.01,3.08.02,4.62.03.4,1.55.15,3.12.17,4.68.02,1.82-.1,3.65-.15,5.47-11.74-.08-23.48-.15-35.22-.23Z"/>
      <path class="cls-21" d="m119.24,156.54c-1.13.24-1.42-.23-1.38-1.35.1-2.8.06-5.6.07-8.4.41-.4.94-.37,1.45-.37,3.53,0,7.05-.01,10.58,0,.51,0,1.04-.05,1.46.35-2.37,2.36-5.09,4.31-7.69,6.39-1.46,1.17-2.99,2.25-4.49,3.38Z"/>
      <path class="cls-21" d="m169.59,154.55c-.13.59.22,1.24-.24,1.79-3.74-2.54-7.51-5.05-10.99-7.95-.67-.56-1.4-1.08-1.9-1.83.38-.38.87-.35,1.35-.36,3.46-.01,6.92-.02,10.38,0,1.4,0,1.51.12,1.49,1.51-.04,2.28.12,4.56-.09,6.83Z"/>
      <path class="cls-13" d="m131.42,146.78c-4.5,0-8.99.01-13.49.02,0-.6-.02-1.2-.02-1.79,5.06-.3,10.13-.11,15.38-.17-.6.89-1.2,1.45-1.87,1.95Z"/>
      <path class="cls-13" d="m169.59,154.55c0-2.25-.07-4.5.01-6.74.04-1.07-.34-1.27-1.31-1.26-3.94.05-7.89.01-11.83.01-.64-.37-1.05-.95-1.77-1.75,5.19,0,10.03,0,14.87,0,.07.2.21.41.21.61,0,2.91,0,5.82-.01,8.73,0,.13-.11.26-.17.39Z"/>
      <path class="cls-21" d="m177.09,170.53c1.19.31,2.4.07,3.6.16.38.03.82-.16,1.13.22,0,3.88-.05,7.75,0,11.63.01,1.02-.27,1.3-1.29,1.29-6.65-.05-13.3.09-19.94-.07-13.8-.34-27.61,0-41.41-.24-4.17-.07-8.33-.06-12.5-.13-.66-.01-1.01-.11-1-.9.04-4.14.04-8.27.05-12.41,8.94.06,17.88.12,26.81.18,5.28.03,10.57.07,15.85.1,9.57.06,19.14.11,28.7.17Z"/>
      <path class="cls-14" d="m156.94,123.49c-8.36,0-16.72-.02-25.09-.02,1.59-1.06,2.75-2.58,3.92-4.03,1.33-1.65,2.96-2.1,4.93-2.12,3.06-.02,6.12.15,9.18.19.94.01,1.47.6,2.05,1.15,1.68,1.59,3.06,3.5,5.01,4.83Z"/>
      <path class="cls-7" d="m138.53,128.7q0,2.37-2.39,2.37c-1.82,0-1.83,0-1.82-1.95,0-.95-.31-2.18.16-2.77.5-.62,1.79-.08,2.72-.21,1.13-.17,1.52.25,1.34,1.35-.07.39-.01.81-.01,1.21Z"/>
      <path class="cls-15" d="m142.6,128.9c.03-.39.05-.57.06-.76q.16-1.95,2.19-1.95c.33,0,.66.02.99,0,.48-.04.65.17.64.64-.02,1.21-.03,2.43,0,3.64.02.55-.2.7-.71.69-.85-.02-1.69-.02-2.54,0-.51.01-.73-.13-.66-.7.07-.58.02-1.17.02-1.55Z"/>
      <path class="cls-15" d="m154.24,128.65q0,2.42-2.39,2.42c-1.54,0-1.54,0-1.47-1.61.04-.88.07-1.77.07-2.66,0-.48.19-.67.66-.62.22.02.44,0,.66,0q2.47,0,2.47,2.46Z"/>
      <path class="cls-7" d="m121.94,177.81c0,.89-.04,1.78.01,2.66.03.61-.2.78-.76.73-.44-.04-.89,0-1.33,0q-2.61,0-2.58-2.57c.02-1.22.07-2.44.06-3.65,0-.52.13-.72.68-.7,1.07.04,2.14.05,3.21,0,.63-.03.73.24.71.78-.04.92,0,1.85,0,2.77Z"/>
      <path class="cls-7" d="m142.5,177.83c0,1.14.45,2.67-.12,3.3-.65.73-2.21.13-3.37.24-.76.08-1.01-.15-.98-.95.07-1.76.05-3.53,0-5.3-.01-.64.1-.93.83-.88.99.08,1.99.08,2.98.04.61-.02.74.23.73.78-.03.92,0,1.84,0,2.76-.02,0-.04,0-.06,0Z"/>
      <path class="cls-15" d="m163.33,177.71c0,.92-.02,1.84,0,2.76.02.53-.09.82-.71.8-1.03-.04-2.06-.03-3.09,0-.5.01-.62-.19-.61-.65.02-1.88.02-3.75,0-5.63,0-.53.16-.7.69-.69,1.03.04,2.06.03,3.09,0,.49-.01.64.18.63.65-.02.92,0,1.84,0,2.76Z"/>
      <path class="cls-7" d="m149.43,177.7c0,.29,0,.37,0,.44,0,3.6,0,3.58-3.64,3.24-.52-.05-.58-.26-.58-.69.01-1.91.02-3.83,0-5.74,0-.52.15-.76.68-.69.04,0,.07,0,.11,0,1.1.02,2.64-.39,3.19.17.75.76.14,2.29.25,3.26Z"/>
      <path class="cls-7" d="m129.03,177.78c0,.81-.07,1.63.02,2.43.1.93-.29,1.14-1.12,1.06-.99-.09-2.28.4-2.89-.19-.67-.64-.17-1.95-.21-2.96-.04-1.07,0-2.14-.02-3.21-.01-.47.13-.66.62-.65,1,.03,1.99.03,2.99,0,.49-.02.64.16.62.63-.03.96,0,1.92,0,2.88Z"/>
      <path class="cls-7" d="m166.03,177.92c0-1.08.02-1.96,0-2.84-.02-.54.09-.81.71-.78,1.13.05,2.56-.35,3.31.28.66.56.15,2.01.19,3.07.03.96-.02,1.92.02,2.87.02.55-.18.7-.69.67-1.14-.05-2.63.38-3.31-.19-.72-.6-.11-2.14-.22-3.08Z"/>
    </g>
  </g>
</svg>