<?xml version="1.0" encoding="UTF-8"?>
<svg xmlns="http://www.w3.org/2000/svg" viewBox="0 0 288 288">
  <defs>
    <style>
      .cls-1 {
        fill: #f8ac1e;
      }

      .cls-1, .cls-2, .cls-3, .cls-4, .cls-5, .cls-6, .cls-7, .cls-8, .cls-9, .cls-10, .cls-11, .cls-12, .cls-13, .cls-14, .cls-15, .cls-16, .cls-17 {
        stroke-width: 0px;
      }

      .cls-2 {
        fill: #5ca880;
      }

      .cls-3 {
        fill: #4b9dba;
      }

      .cls-4 {
        fill: #50a7ce;
      }

      .cls-5 {
        fill: #9c6aa1;
      }

      .cls-6 {
        fill: #1b8040;
      }

      .cls-7 {
        fill: #c3d2d8;
      }

      .cls-8 {
        fill: #e18d7c;
      }

      .cls-9 {
        fill: #e09c3d;
      }

      .cls-10 {
        fill: #e23325;
      }

      .cls-11 {
        fill: #be694f;
      }

      .cls-12 {
        fill: #d9a12b;
      }

      .cls-13 {
        fill: #a22519;
      }

      .cls-14 {
        fill: #fce5b3;
      }

      .cls-15 {
        fill: #72b276;
      }

      .cls-16 {
        fill: #fcd680;
      }

      .cls-17 {
        fill: #669c67;
      }
    </style>
  </defs>
  <g id="String">
    <g>
      <path class="cls-12" d="m155.62,11.63c0,.68-.06,1.35-.17,1.99-.49,2.88-2.05,5.39-4.26,7.11-1.98,1.58-4.48,2.51-7.19,2.51-2.08,0-4.02-.59-5.71-1.55,7.69-4.13,9.97-10.39,7.38-21.55,1.39.21,2.69.68,3.89,1.34,3.6,1.97,6.07,5.76,6.07,10.15Z"/>
      <path class="cls-1" d="m145.66.14c2.59,11.15.31,17.42-7.38,21.55-.51-.29-.99-.61-1.44-.97-2.21-1.73-3.79-4.22-4.28-7.1-.13-.64-.18-1.31-.18-1.99C132.38,5.21,137.58,0,143.99,0c.56,0,1.13.05,1.67.14Z"/>
      <path class="cls-7" d="m155.45,13.62l97.57,49.23h-18.37l-83.46-42.12c2.21-1.73,3.76-4.24,4.26-7.11Z"/>
      <path class="cls-7" d="m132.56,13.62c.49,2.88,2.07,5.38,4.28,7.1L53.36,62.85h-18.38L132.56,13.62Z"/>
    </g>
  </g>
  <g id="Bar">
    <g>
      <path class="cls-11" d="m260.13,74.47c11.07,0,9.97-3.17,10.22-11.63h6.02c6.42,0,11.63,5.2,11.63,11.63s-5.2,11.63-11.63,11.63H11.63c-6.42,0-11.63-5.2-11.63-11.63,0-1.89.49-3.65,1.3-5.23,1.04,5.58,4.37,5.02,11.22,5.23h247.61Z"/>
      <path class="cls-9" d="m267.58,62.85h2.77c-.25,8.46.85,11.63-10.22,11.63H12.52c-6.85-.21-10.19.36-11.22-5.23,1.91-3.78,5.79-6.4,10.32-6.4h255.96Z"/>
    </g>
  </g>
  <g id="Roll">
    <rect class="cls-16" x="29.2" y="51.34" width="229.6" height="46.28"/>
  </g>
  <g id="Middle">
    <g>
      <rect class="cls-14" x="41.59" y="56.11" width="204.82" height="144.85"/>
      <rect class="cls-2" x="246.41" y="56.11" width="12.41" height="144.85"/>
      <rect class="cls-2" x="29.18" y="56.11" width="12.41" height="144.85"/>
    </g>
  </g>
  <g id="Bottom">
    <g>
      <polygon class="cls-2" points="143.97 267.66 258.82 208.54 258.82 200.96 246.41 200.96 143.97 253.7 41.59 200.96 29.18 200.96 29.18 208.54 143.97 267.66"/>
      <path class="cls-7" d="m258.82,208.54v16.26c0,2.82-2.3,5.06-5.06,5.06s-5.11-2.24-5.11-5.06v-11.03l10.17-5.23Z"/>
      <polyline class="cls-14" points="246.41 200.96 143.97 253.7 41.59 200.96"/>
      <path class="cls-7" d="m222.22,227.39v16.49c0,2.82-2.3,5.11-5.06,5.11s-5.06-2.3-5.06-5.11v-11.26l10.11-5.23Z"/>
      <path class="cls-7" d="m185.62,246.23v16.78c0,2.82-2.24,5.06-5.06,5.06s-5.06-2.24-5.06-5.06v-11.61l10.11-5.17Z"/>
      <path class="cls-7" d="m149.09,265.02v17.92c0,2.82-2.3,5.06-5.11,5.06s-5.06-2.24-5.06-5.06v-17.87l5.06,2.59,5.11-2.64Z"/>
      <path class="cls-7" d="m112.49,251.4v11.61c0,2.82-2.3,5.06-5.06,5.06s-5.06-2.24-5.06-5.06v-16.78l10.11,5.17Z"/>
      <path class="cls-7" d="m65.78,227.39l10.11,5.23v11.26c0,2.82-2.24,5.11-5.06,5.11s-5.06-2.3-5.06-5.11v-16.49Z"/>
      <path class="cls-7" d="m39.29,213.77v11.03c0,2.82-2.24,5.06-5.06,5.06s-5.06-2.24-5.06-5.06v-16.26l10.11,5.23Z"/>
    </g>
  </g>
  <g id="Top_Roll" data-name="Top Roll">
    <g>
      <polygon class="cls-6" points="258.82 51.34 258.82 56.11 246.41 56.11 246.41 51.34 253.07 51.34 258.82 51.34"/>
      <polygon class="cls-16" points="246.41 51.34 246.41 56.11 41.59 56.11 41.59 51.34 53.31 51.34 234.69 51.34 246.41 51.34"/>
      <polygon class="cls-6" points="41.59 51.34 41.59 56.11 29.18 56.11 29.18 51.34 34.93 51.34 41.59 51.34"/>
    </g>
  </g>
  <g id="Icon">
    <g>
      <path class="cls-10" d="m178.36,110.88c2.73,1.26,4.83,3.22,6.4,5.76,1.06,1.71,2.07,3.46,3.15,5.16,1.67,2.63,3.72,4.93,6.2,6.85,2.61,2.03,3.87,4.76,3.89,8.06.01,1.7-.79,3.12-1.61,4.51-.77,1.29-1.63,2.53-2.45,3.79-2.4,3.41-5.48,6.23-8.19,9.37-1.3,1.18-2.68,2.28-3.89,3.56-.41.43-.84.82-1.5.45-2.55-1.65-5.12-3.28-7.67-4.95-.41-.27-.91-.48-.9-1.1,2.47-4.7,4.91-9.42,7.42-14.09.45-.84.45-1.5-.05-2.27-.96-1.49-2.03-2.86-3.62-3.73-1.62-.67-3.09-1.65-4.74-2.26-.34-.12-.59-.41-.53-.85,1.01-1.67,1.79-3.4,2.04-5.39.51-3.99-1.87-8.54-5.54-10.26-.44-.21-1.18-.26-1.16-.81.01-.57.76-.67,1.22-.93.53-.29,1.08-.3,1.68-.21,1.71.25,3.38.7,5.08,1.02.86.16,1.71.19,2.58.11,1.13-.11,2-.55,2.21-1.8Z"/>
      <path class="cls-15" d="m178.36,110.88c.25,1-.09,1.56-1.16,1.89-1.87.58-3.69.1-5.52-.28-1.16-.24-2.31-.47-3.47-.71-1-.21-1.66.52-2.69.93,1.76.59,3.11,1.47,4.25,2.67,3.42,3.6,3.85,9.49.93,13.48-.1.14-.25.25-.38.37-.48.31-.81-.06-1.17-.27-.5-.46-.96-.97-1.46-1.44-.66-.61-.86-.58-1.19.3-.44,1.18-.93,2.33-1.46,3.48-1.01,2.18-2.61,3.85-4.5,5.26-1.57.88-3.02,1.97-4.71,2.62-1.75.84-3.49,1.69-5.24,2.5-1.76.82-3.55,1.63-5.49,1.88-2.22.29-4.38-.06-6.35-1.18-1.34-.76-1.92-2.03-1.54-3.11.62-1.76,2.3-3.02,3.79-2.77.67.11,1.34.28,1.98.51,1.56.55,3.01.4,4.45-.41,2.8-1.58,5.23-3.7,7.91-5.45,1.2-.78,1.81-1.75,2.14-3.13.72-3,1.52-6,2.7-8.87,1.01-2.46,2.18-4.81,4.71-6.1.43-.22.55-.48.21-.82-.38-.38-.27-1.32-1.21-1.06-2.9.79-4.02.4-5.7-2.1-1.62-2.4-2.57-5.05-2.79-7.95,1.1-.04,1.57.82,2.21,1.49.29-.53.43-1.14.6-1.73.17-.59.5-.53.85-.15.28.3.38.69.49,1.07.58,1.84,1.7,2.95,3.72,3.23,1.92.26,3.08,1.56,3.64,3.4.08.27.04.58.31.83,1.39-.61,2.56-1.53,3.61-2.63.28-.29.46-.76.99-.74.22,1.22.98,2.23,1.42,3.36.13.33.44.3.74.31,1.58.06,3.03.51,4.39,1.32Z"/>
      <path class="cls-1" d="m108.76,141.56c-.18,1.37.39,2.34,1.53,3.06,2,1.25,3.99,2.53,5.99,3.79-.05.54-.54.73-.85,1.06-1.25,1.36-2.18,2.93-3.05,4.54-.2.38-.27.93-.87.96-.05-.05-.13-.12-.11-.18.46-1.37-.57-1.79-1.47-2.29-1.54-.84-3-1.8-4.74-2.71.39,1.1.82,2,1.13,2.94.18.52.55,1.04.25,1.64-1.33.73-2.84.98-4.24,1.53-1.81.72-3.58,1.48-5.24,2.51-.21.13-.42.29-.7.18-1.65-2.78-3.41-5.48-4.87-8.38-2.36-4.69-1.94-9.33.88-13.49,2.7-3.99,4.24-8.35,5.54-12.87.73.3.76,1.02.82,1.6.34,3.07.67,6.13.91,9.21.08,1.04.44,1.75,1.3,2.31,2.14,1.39,4.38,2.61,6.7,3.67.43.2,1.01.26,1.07.91Z"/>
      <path class="cls-4" d="m108.76,141.56c-1.69-.87-3.38-1.74-5.07-2.62-.26-.13-.51-.27-.76-.4-2.01-1.05-3.76-2.12-3.68-4.94.08-2.45-.48-4.92-.66-7.38-.06-.85-.36-1.59-.64-2.35-.12-5.52,4.02-10.5,9.23-11.07,1.03-.14,1.72.4,2.23,1.19,1.61,2.55,1.96,5.68-.07,8.17-1.49,1.83-1.98,3.82-2.3,5.99-.17,1.1-.51,2.17-.65,3.28-.17,1.32.04,1.68,1.18,2.36,1.16.7,2.46,1.21,3.28,2.38,1.26,1.08,2.65,1.97,4.14,2.7.5.24,1.02.3,1.56.33,3.03.16,5.04,1.89,6.51,4.36.44.75.25,1.53-.49,2.1-1.94,1.49-5.16,1.52-6.95-.16-2-1.87-4.37-2.98-6.85-3.95Z"/>
      <path class="cls-15" d="m171.78,152.35c.77.88,1.82,1.36,2.77,1.99,1.97,1.3,3.95,2.58,5.93,3.86.33.59-.18.94-.43,1.32-1.05,1.54-2.2,3.01-2.96,4.73-.97,1.48-1.13,2.95-.49,4.69.92,2.52.81,5.24.95,7.89.03.57-.01,1.15.01,1.73,0,1.02-.02,2.05-.5,2.99-.08,1.79-.16,3.57-.24,5.36-.99,1.31-2.4,1.32-3.79,1.07-1.05-.19-2.08-.62-2.29-1.91-.11-7.72-1.51-15.27-3.14-22.78-.37-1.71.11-3.27.83-4.79.99-2.12,2.1-4.17,3.35-6.14Z"/>
      <path class="cls-4" d="m96.41,158.61c3.08-2.17,6.59-3.31,10.16-4.33.71.31.78.95.85,1.6.36,1.53.87,3.03,1.16,4.58.25,1.36.03,2.56-.53,3.76-.79,1.7-1.86,3.23-2.9,4.79-3.09,4.63-5.27,9.62-5.74,15.25-.63,1.36-1.82,1.81-3.19,1.87-1.32.06-2.45-.3-3.05-1.64.28-2.05.68-4.1.82-6.16.35-5.16,1.85-9.99,4.02-14.63.48-1.04.45-1.89-.21-2.8-.52-.72-1.1-1.42-1.38-2.29Z"/>
      <path class="cls-8" d="m171.82,105.88c-1.28,1.63-2.82,2.94-4.73,3.75-.08-.06-.17-.09-.18-.13-.4-2.54-1.79-4.07-4.4-4.39-1.93-.23-2.61-1.68-3.21-3.23-.17-.44-.15-1.01-.78-1.28-.12.84-.33,1.61-.83,2.38-.72-.69-1.35-1.47-2.28-1.86-1.39-1.18-1.57-2.68-1.06-4.31.33-1.07,1.03-1.81,2.18-2.01.59-.11,1.03-.4,1.47-.8,3.34-3.12,9.43-2.73,12.28-.55,2.84,2.17,3.36,5.31,2.99,8.65-.15,1.37-.62,2.66-1.44,3.79Z"/>
      <path class="cls-3" d="m118.88,113.86c2.75,1.46,4.37,3.71,5,6.78.55,2.67,1.24,5.32,1.92,7.96.44,1.69.64,1.75,2.32,1.26,1.69-.49,3.42-.89,5.17-1.05,1.61-.15,2.87-.66,3.72-2.13.66-1.15,1.73-1.79,3.11-1.86,2.95-.14,4.94,2.35,3.79,5.5-.4,1.09-1.45,1.45-2.49,1.69-1.75.41-3.54.69-5.18,1.43-2.73,1.23-5.61,2.02-8.49,2.78-.87.23-1.78.31-2.62.59-1.2.41-1.91-.13-2.52-1.05-1.51-2.25-2.75-4.64-3.97-7.05-.18-.36.07-.61.25-.87,2.48-3.71,2.26-8.77-.53-12.24-.27-.33-.57-.64-.8-1.01-.12-.55-.2-.82.28-1.03.32-.05.72.03,1.06.29Z"/>
      <path class="cls-3" d="m111.5,154.96c1.15-1.81,2.01-3.81,3.5-5.41.4-.43.81-.81,1.27-1.15,2.06,1.12,4.04,2.35,5.77,3.94,2.27,2.08,2.71,4.91,1.21,7.63-2.29,4.16-3.67,8.64-4.79,13.22-.04.17-.03.36-.05.54-.22.4.04.78.02,1.18-.75,1.28-2.01,1.67-3.34,1.67-1.04,0-2.14-.2-2.67-1.36.34-2.96.7-5.91,1.02-8.87.26-2.41.98-4.71,1.86-6.95.27-.68.15-.91-.53-1.12-1.37-.42-2.71-.95-4.06-1.43-.11-.78.15-1.42.78-1.89Z"/>
      <path class="cls-1" d="m117.58,114.5c2.06,1.68,3.04,3.91,3.22,6.5.2,2.82-.29,5.48-2.17,7.73-2.69,2.38-5.62,4.51-7.78,7.44-1.36-.81-2.61-1.77-4.03-2.48-.72-.36-.93-1.09-.8-1.85.42-2.4.89-4.8,1.31-7.2.09-.5.35-.81.69-1.16,2.19-2.25,2.95-4.86,1.89-7.91-.48-1.37-1.22-2.44-2.73-2.78.76-.39,1.62-.37,2.43-.58.99.08,1.59.75,2.12,1.49.74,1.01,1.33,2.12,1.99,3.18.41.66.94,1.18,1.71,1.38,1.15.31,1.94-.29,2.1-1.48.1-.77-.45-1.54.05-2.29Z"/>
      <path class="cls-5" d="m111.36,109.56c-1.47-2.62-2.49-5.33-2.03-8.42.64-4.21,4.02-7.3,8.3-7.59,3.03-.2,5.81.33,8.02,2.6.19.2.43.23.67.31,2.3.74,3.72,4.46,2.54,6.65-.53.18-1.04.19-1.58,0-1.54-.54-3.02-.69-4.3.63-.44.45-.84.22-1.14-.25-.27-.42-.44-.9-.63-1.3-.13-.05-.21-.05-.25.02-.9,1.95-2.43,3.03-4.52,3.47-2.1.44-3.35,1.84-3.93,3.88-.09.33-.15.77-.64.74-.42-.03-.42-.42-.52-.72Z"/>
      <path class="cls-4" d="m111.36,109.56c.23.16.24.6.59.55.32-.05.21-.41.28-.63.64-2.29,2.13-3.72,4.45-4.18,1.93-.38,3.24-1.42,4.01-3.21.1-.24.15-.64.52-.58.3.04.23.4.3.63.07.24.19.46.28.7.32.81.6,1.33,1.46.36.78-.88,1.89-.91,3-.66.87.2,1.69.62,2.61.58-.55.23-.61.72-.67,1.23-.25,2.01-.77,3.96-1.73,5.74-1.72,3.19-3.51,4.58-7.33,3.56-.3,0-.61-.25-.9.02-.38.15-.45.54-.64.83.09.67.23,1.34.25,2.02.05,1.78-1.41,2.65-3,1.83-.74-.38-1.17-1.04-1.59-1.72-.52-.86-1.06-1.71-1.58-2.57-.5-.82-1.2-1.42-2.05-1.85.93-.05.98-.89,1.29-1.48.2-.37.31-.78.46-1.18Z"/>
      <path class="cls-17" d="m177.02,164.03c.38-1.49,1.43-2.6,2.24-3.85.42-.65.97-1.23,1.22-1.98.42.28.7.05,1-.25,1.1-1.06,2.21-2.09,3.32-3.14.26-.24.47-.54.87-.55,1.1.17,2.08.57,2.77,1.5-.62,1.82-1.7,3.39-2.77,4.96-.45.67-.38.94.27,1.41,3.94,2.86,6.26,6.77,7.21,11.51.09.45.05.93.07,1.4-.17,1.03-.65,1.51-1.68,1.56-1.45.07-2.65-.55-3.7-1.48-.4-.36-.72-.8-1.08-1.21-1.1-2.02-2.73-3.57-4.42-5.07-1.55-1.38-3.2-2.64-4.78-3.98-.26-.22-.66-.36-.55-.83Z"/>
      <path class="cls-10" d="m170.75,186.07c1.61,2.06,3.32,2.3,6.08.84.99-.15,1.39.42,1.48,1.28.18,1.82-.16,3.58-.59,5.34-.1.39-.35.49-.67.59-4.39,1.32-8.83,2.34-13.47,2.13-1.57-.07-3.07-.41-4.46-1.15-1.25-.67-1.34-1.48-.34-2.48.7-.69,1.52-1.21,2.36-1.7,2.83-1.65,5.68-3.27,8.5-4.92.43-.25.76-.33,1.1.07Z"/>
      <path class="cls-1" d="m93.17,184.5c1.81,1.9,4.03,1.98,6.24-.23,3.05,2.52,6.08,5.05,8.93,7.78.74.71,1.74,1.47,1.39,2.62-.34,1.13-1.58,1.05-2.56,1.2-3.1.49-5.98-.45-8.83-1.42-2.42-.82-4.72-1.92-6.99-3.1-.54-.28-.8-.59-.79-1.23.01-1.58-.03-3.17.42-4.7.41-1.4.91-1.59,2.19-.92Z"/>
      <path class="cls-12" d="m112.43,175.22c2.05,1.58,4.51,1.41,5.84-.41.08-.1.06-.26.19-.33,3.47,2.17,7,4.25,10.06,7,.11.1.2.21.29.32.33.39.68.82.42,1.35-.23.47-.75.53-1.22.54-2.78.12-5.52-.36-8.27-.69-2.5-.3-4.98-.73-7.47-1.07-.76-.1-1.17-.34-1.26-1.23-.13-1.4-.28-2.79-.12-4.2.1-.87.44-1.55,1.54-1.29Z"/>
      <path class="cls-13" d="m186.77,173.69c.37.05.51.35.7.61.73.99,1.74,1.58,2.91,1.92,1.39.4,2,.14,2.85-1.17.84-.14,1.22.32,1.29,1.07.16,1.79-.34,3.48-.84,5.18-.11.37-.39.39-.67.4-5.32.06-10.63.33-15.95-.13.06-1.01.12-2.01.18-3.02.32-.62.94-.87,1.5-1.17,2.32-1.21,4.67-2.35,7.01-3.51.31-.15.63-.37,1.01-.16Z"/>
      <path class="cls-17" d="m169.24,128.79c.36.15.72.29,1.09.44.17.46.59.57.99.74,1.48.63,3,1.17,4.21,2.29-.87.88-1.97,1.42-3.03,2.02-2.92,1.65-5.65,3.55-8.06,5.9-2.12,2.06-5.76,2.14-7.97.19-.36-.31-.68-.65-.63-1.18,1.03-.93,2.33-1.43,3.47-2.17.35-.23.8-.3,1.07-.65,3.55-.77,5.64-3.33,7.54-6.14.36-.53.52-1.29,1.32-1.42Z"/>
      <path class="cls-12" d="m111.5,154.96c-.26.63-.52,1.26-.78,1.89-1.19-.04-2.18-.72-3.31-.97-.48-.43-.47-1.12-.85-1.6-.58-1.6-1.16-3.19-1.85-5.08,1.55.89,2.84,1.63,4.12,2.37.74.43,1.46.92,2.23,1.3.77.37,1.04.81.53,1.58-.09.14-.07.35-.09.52Z"/>
      <path class="cls-13" d="m188.45,155.77c-.92-.5-1.85-1-2.77-1.5.48-1.17,1.52-1.88,2.32-2.76,1.82-1.98,3.66-3.94,5.34-6.05.15-.19.39-.3.59-.45-1.69,3.42-3.38,6.85-5.08,10.26-.09.19-.26.33-.4.5Z"/>
      <path class="cls-3" d="m118.46,174.48c-.06.11-.13.22-.19.33-.03-.37-.13-.75.15-1.08.01.25.03.5.04.75Z"/>
    </g>
  </g>
</svg>