<?xml version="1.0" encoding="UTF-8"?>
<svg xmlns="http://www.w3.org/2000/svg" viewBox="0 0 288 288">
  <defs>
    <style>
      .cls-1 {
        fill: #f8ac1e;
      }

      .cls-1, .cls-2, .cls-3, .cls-4, .cls-5, .cls-6, .cls-7, .cls-8, .cls-9, .cls-10, .cls-11, .cls-12, .cls-13, .cls-14, .cls-15, .cls-16, .cls-17, .cls-18, .cls-19, .cls-20, .cls-21, .cls-22, .cls-23, .cls-24 {
        stroke-width: 0px;
      }

      .cls-2 {
        fill: #553785;
      }

      .cls-3 {
        fill: #5ca880;
      }

      .cls-4 {
        fill: #55a9eb;
      }

      .cls-5 {
        fill: #53a1dc;
      }

      .cls-6 {
        fill: #96a7b2;
      }

      .cls-7 {
        fill: #8a65c0;
      }

      .cls-8 {
        fill: #1b8040;
      }

      .cls-9 {
        fill: #226696;
      }

      .cls-10 {
        fill: #c3d2d8;
      }

      .cls-11 {
        fill: #d2ab93;
      }

      .cls-12 {
        fill: #c9d3da;
      }

      .cls-13 {
        fill: #e09c3d;
      }

      .cls-14 {
        fill: #be694f;
      }

      .cls-15 {
        fill: #d9a12b;
      }

      .cls-16 {
        fill: #9cabb7;
      }

      .cls-17 {
        fill: #8f66c9;
      }

      .cls-18 {
        fill: #a0a9bd;
      }

      .cls-19 {
        fill: #a0aabc;
      }

      .cls-20 {
        fill: #9fc0d7;
      }

      .cls-21 {
        fill: #fce5b3;
      }

      .cls-22 {
        fill: #f18d0c;
      }

      .cls-23 {
        fill: #fcd680;
      }

      .cls-24 {
        fill: #fca933;
      }
    </style>
  </defs>
  <g id="String">
    <g>
      <path class="cls-15" d="m155.62,11.63c0,.68-.06,1.35-.17,1.99-.49,2.88-2.05,5.39-4.26,7.11-1.98,1.58-4.48,2.51-7.19,2.51-2.08,0-4.02-.59-5.71-1.55,7.69-4.13,9.97-10.39,7.38-21.55,1.39.21,2.69.68,3.89,1.34,3.6,1.97,6.07,5.76,6.07,10.15Z"/>
      <path class="cls-1" d="m145.66.14c2.59,11.15.31,17.42-7.38,21.55-.51-.29-.99-.61-1.44-.97-2.21-1.73-3.79-4.22-4.28-7.1-.13-.64-.18-1.31-.18-1.99C132.38,5.21,137.58,0,143.99,0c.56,0,1.13.05,1.67.14Z"/>
      <path class="cls-10" d="m155.45,13.62l97.57,49.23h-18.37l-83.46-42.12c2.21-1.73,3.76-4.24,4.26-7.11Z"/>
      <path class="cls-10" d="m132.56,13.62c.49,2.88,2.07,5.38,4.28,7.1L53.36,62.85h-18.38L132.56,13.62Z"/>
    </g>
  </g>
  <g id="Bar">
    <g>
      <path class="cls-14" d="m260.13,74.47c11.07,0,9.97-3.17,10.22-11.63h6.02c6.42,0,11.63,5.2,11.63,11.63s-5.2,11.63-11.63,11.63H11.63c-6.42,0-11.63-5.2-11.63-11.63,0-1.89.49-3.65,1.3-5.23,1.04,5.58,4.37,5.02,11.22,5.23h247.61Z"/>
      <path class="cls-13" d="m267.58,62.85h2.77c-.25,8.46.85,11.63-10.22,11.63H12.52c-6.85-.21-10.19.36-11.22-5.23,1.91-3.78,5.79-6.4,10.32-6.4h255.96Z"/>
    </g>
  </g>
  <g id="Roll">
    <rect class="cls-23" x="29.2" y="51.34" width="229.6" height="46.28"/>
  </g>
  <g id="Middle">
    <g>
      <rect class="cls-21" x="41.59" y="56.11" width="204.82" height="144.85"/>
      <rect class="cls-3" x="246.41" y="56.11" width="12.41" height="144.85"/>
      <rect class="cls-3" x="29.18" y="56.11" width="12.41" height="144.85"/>
    </g>
  </g>
  <g id="Bottom">
    <g>
      <polygon class="cls-3" points="143.97 267.66 258.82 208.54 258.82 200.96 246.41 200.96 143.97 253.7 41.59 200.96 29.18 200.96 29.18 208.54 143.97 267.66"/>
      <path class="cls-10" d="m258.82,208.54v16.26c0,2.82-2.3,5.06-5.06,5.06s-5.11-2.24-5.11-5.06v-11.03l10.17-5.23Z"/>
      <polyline class="cls-21" points="246.41 200.96 143.97 253.7 41.59 200.96"/>
      <path class="cls-10" d="m222.22,227.39v16.49c0,2.82-2.3,5.11-5.06,5.11s-5.06-2.3-5.06-5.11v-11.26l10.11-5.23Z"/>
      <path class="cls-10" d="m185.62,246.23v16.78c0,2.82-2.24,5.06-5.06,5.06s-5.06-2.24-5.06-5.06v-11.61l10.11-5.17Z"/>
      <path class="cls-10" d="m149.09,265.02v17.92c0,2.82-2.3,5.06-5.11,5.06s-5.06-2.24-5.06-5.06v-17.87l5.06,2.59,5.11-2.64Z"/>
      <path class="cls-10" d="m112.49,251.4v11.61c0,2.82-2.3,5.06-5.06,5.06s-5.06-2.24-5.06-5.06v-16.78l10.11,5.17Z"/>
      <path class="cls-10" d="m65.78,227.39l10.11,5.23v11.26c0,2.82-2.24,5.11-5.06,5.11s-5.06-2.3-5.06-5.11v-16.49Z"/>
      <path class="cls-10" d="m39.29,213.77v11.03c0,2.82-2.24,5.06-5.06,5.06s-5.06-2.24-5.06-5.06v-16.26l10.11,5.23Z"/>
    </g>
  </g>
  <g id="Top_Roll" data-name="Top Roll">
    <g>
      <polygon class="cls-8" points="258.82 51.34 258.82 56.11 246.41 56.11 246.41 51.34 253.07 51.34 258.82 51.34"/>
      <polygon class="cls-23" points="246.41 51.34 246.41 56.11 41.59 56.11 41.59 51.34 53.31 51.34 234.69 51.34 246.41 51.34"/>
      <polygon class="cls-8" points="41.59 51.34 41.59 56.11 29.18 56.11 29.18 51.34 34.93 51.34 41.59 51.34"/>
    </g>
  </g>
  <g id="Icon">
    <g>
      <path class="cls-24" d="m182.7,125.46c3.83.02,7.65.09,11.48.02,1.91-.04,3.17.67,3.82,2.46v1.52c-.32,1.35-1.24,2.07-2.52,2.44-.68.11-1.37.07-2.06.07-18.64,0-37.27.04-55.91-.04-3.13-.01-4.37,1.56-5.06,3.89-.62,2.11-.72,4.26-.15,6.41.3.93.55,1.87,1.09,2.71.72,1.12,1.7,1.74,3.05,1.74.47,0,.94,0,1.41,0,18.38,0,36.76,0,55.15,0,.79,0,1.59-.04,2.37.16,1.41.31,2.42,1.03,2.62,2.57v1.52c-.76,1.81-2.18,2.48-4.06,2.35-.39-.03-.79.02-1.19.04-.55.5-1.23.35-1.86.35-9.29.01-18.58.01-27.88,0-15.51,0-31.02.02-46.53,0-3.23,0-6.46,0-9.68,0-.57,0-1.15.06-1.7-.17-.13-.06-.2-.16-.23-.3.31-.49.82-.4,1.27-.4,7.73-.01,15.46,0,23.19,0,.32,0,.64,0,.86.1-1.47-.52-2.61-1.58-3.55-2.88-1.76-2.45-2.64-5.23-2.88-8.19-.26-3.22-.09-6.41,1.01-9.52,1.23-3.48,3.28-6.08,7-7.07,1.71-.45,3.45-.29,5.17-.18.94.06,1.87.14,2.81.14,13.68,0,27.36,0,41.04,0,.64,0,1.31-.12,1.9.25Z"/>
      <path class="cls-12" d="m195.63,147.16c-1.66-.04-3.32-.11-4.98-.11-17.64,0-35.27,0-52.91,0-3.6,0-5.02-1.18-5.74-4.78-.01-1.25.49-2.31,1.26-3.27.72-.89,1.63-1.4,2.8-1.42.29,0,.58-.01.87-.01,20,0,40,.01,60,0,.36,0,.72-.02,1.06.14v3.25c-.24.42-.05.87-.11,1.3,0,1.39-.17,2.73-.91,3.95-.32.52-.7.92-1.35.96Z"/>
      <path class="cls-6" d="m198,137.7c-.47.27-.98.2-1.48.2-19.76,0-39.53.03-59.29-.04-2.83,0-3.88.97-4.86,3.5-.12.3-.24.6-.36.9-.77-3.14-.52-6.15,1.24-8.92.77-1.2,1.91-1.74,3.39-1.74,19.12.02,38.24.01,57.36.01.58,0,1.16-.01,1.73-.02.68,0,1.01.46,1.32.97.69,1.16.82,2.44.83,3.75.05.38-.12.79.11,1.15v.22Z"/>
      <path class="cls-12" d="m194.34,164.8c.41,1.14.28,2.35.35,3.51.17,2.95.45,5.91.25,8.87-.24,3.48-.28,6.98-1.06,10.4-.23,1.02-.53,2.03-1.29,2.81-.39.44-.92.35-1.41.38-1.74.11-3.46-.23-5.2-.23-21.37.02-42.74.02-64.1.01-2.29,0-3.31-.75-4-2.88-.26-2.51-.61-5.02-.48-7.55.18-3.53.35-7.07,1.42-10.49.11-.34.21-.69.35-1.03,1.17-2.82,1.84-3.27,4.87-3.27,22.65,0,45.3,0,67.95,0,.83,0,1.67.09,2.36-.54Z"/>
      <path class="cls-17" d="m118.14,187.59c.86,2.15,1.56,2.63,3.78,2.63,21.72,0,43.44,0,65.16,0,1.84,0,3.67.26,5.51.15,1.64.63,2.54,1.94,2.3,3.36-.29,1.77-1.54,2.73-3.59,2.73-15.24,0-30.49,0-45.73,0-6.97,0-13.94-.01-20.91-.02-2.34-.17-4.69-.03-7.03-.07-.51,0-1.01.01-1.51-.1-.99-.02-1.68-.63-2.32-1.26-2.02-1.95-3.1-4.43-3.85-7.06-1.09-3.76-1.61-7.62-1.64-11.55-.03-4.31.1-8.6,1.14-12.81.63-2.54,1.42-5.01,2.87-7.22,1-1.51,2.18-2.79,4.11-3.06,3.11-.01,6.22-.04,9.32-.04,21.72,0,43.45,0,65.17,0,.61,0,1.23.02,1.84.03,1.2.59,2.06,1.45,2.17,2.86.11,1.33-.7,2.47-2.13,3.03-.24.37-.61.47-1.03.48-.47.01-.94.01-1.41.01-22.71,0-45.43,0-68.14,0-.58,0-1.16-.06-1.72.08-1.11.32-1.63,1.22-2.05,2.19-.93,2.08-1.3,4.3-1.59,6.54-.17.51-.12,1.04-.11,1.56,0,.31-.03.62-.1.93-.2,2.53-.19,5.05,0,7.58.16,3.06.74,6.05,1.51,9.01Z"/>
      <path class="cls-12" d="m185.4,103.84c.36,2.18.25,4.38.22,6.57-.03,2.26-.33,4.5-.88,6.7-.22.9-.8,1.58-1.27,2.33-.21.25-.5.26-.79.25-7.29-.22-14.59-.08-21.89-.09-15.97-.03-31.93,0-47.9,0-2.86,0-3.95-.73-4.98-3.39-.62-1.59-1.06-3.22-1.04-4.95.3-1.52.52-3.06,1.14-4.5,1.09-2.52,2.15-3.25,4.88-3.25,23.55,0,47.09,0,70.64,0,.64,0,1.31-.14,1.88.32Z"/>
      <path class="cls-4" d="m107.12,111.23c.16,1.96.57,3.85,1.41,5.63.75,1.59,1.89,2.45,3.82,2.45,21.22-.05,42.43-.03,63.65-.02,2.49,0,4.98-.11,7.46.17,1.56.66,2.34,1.87,2.16,3.33-.18,1.48-1.18,2.38-2.92,2.68-7.94,0-15.88.03-23.83.02-8.34-.01-16.68-.06-25.02-.08-.75,0-1.51.09-2.26.14-1.01.25-2.03.38-3.08.38-7.64-.01-15.27,0-22.91-.01-.64,0-1.31.1-1.87-.34-1.77-.13-3.55.19-5.3-.18.24-.36.62-.34.97-.34,2.08-.02,4.17-.03,6.18,0-2.51-1.23-3.91-3.5-4.81-6.04-2.46-6.98-2.49-14.01,0-21.01.66-1.85,1.64-3.54,3.11-4.9.95-.88,2.01-1.52,3.37-1.51,1.75-.04,3.51.09,5.26-.07.69,0,1.37-.02,2.06-.02,22.26,0,44.51,0,66.77,0,.33,0,.65,0,.98,0,1.8.04,3.07,1.07,3.31,2.67.23,1.55-.63,2.81-2.33,3.42-.59.41-1.26.27-1.9.27-22.61,0-45.23,0-67.84,0-.61,0-1.23-.07-1.83.09-1.35.14-2.2.98-2.82,2.1-.96,1.74-1.22,3.66-1.51,5.59-.28,1.86-.12,3.72-.27,5.58Z"/>
      <path class="cls-22" d="m103.73,125.56c7.09-.03,14.17-.06,21.26-.07,2.2,0,4.41.03,6.61.05-4.91,1.66-6.57,5.68-7.34,10.26-.57,3.41-.43,6.84.68,10.13,1.05,3.12,2.69,5.82,6,7.2h-26.03c-.56.37-1.08.33-1.53-.18-1.94-.54-3.35-1.78-4.46-3.4-3.64-5.33-3.63-15.05,0-20.38,1.2-1.77,2.84-2.9,4.82-3.6Z"/>
      <path class="cls-2" d="m116.41,153.34c-3.09,1.24-4.53,3.86-5.6,6.75-1.13,3.05-1.7,6.23-2.02,9.47-.3,2.99-.34,6-.13,8.97.38,5.29,1.09,10.56,4.26,15.08.77,1.1,1.7,2.06,3.06,2.45.02.33-.22.32-.43.32-4.71-.04-9.42.09-14.13-.06-1.86-.29-3.09-1.48-4.1-2.93-1.89-2.69-2.79-5.77-3.35-8.94-1.34-7.52-1.26-15.01.78-22.42.62-2.27,1.5-4.44,3.01-6.3,1.13-1.4,2.51-2.37,4.39-2.45.93-.09,1.85-.1,2.78,0,3.83.02,7.66.04,11.48.06Z"/>
      <path class="cls-6" d="m116.64,168.5c.18-2.76.73-5.42,2.19-7.81.29-.48.64-.98,1.28-1.08.38-.2.78-.1,1.17-.1,23.44,0,46.88,0,70.31,0,.39,0,.79-.11,1.16.11,1.28,1.5,1.29,3.38,1.58,5.18.04.61-.16.98-.86.88-.25-.03-.51,0-.76,0-22.91,0-45.82,0-68.72,0-2.91,0-3.89.71-4.71,3.52-.8,2.74-1.15,5.54-1.39,8.38-.29,3.37.03,6.68.25,10.02-1.25-2.83-1.67-5.82-1.72-8.88-.17-2.61-.17-5.22,0-7.84,0-.29.01-.57.02-.86.26-.48-.07-1.04.2-1.52Z"/>
      <path class="cls-6" d="m107.12,111.23c-.53-3.11-.12-6.15.65-9.16.34-1.33.89-2.58,1.94-3.55.5-.46,1.02-.8,1.72-.74.35-.16.71-.09,1.07-.09,23.24,0,46.48,0,69.72,0,.36,0,.72-.07,1.07.07.7.17.92.78,1.14,1.34.6,1.52.88,3.11.97,4.74-1.48,0-2.96.02-4.44.02-22.86,0-45.72.01-68.58-.02-1.78,0-2.91.74-3.7,2.26-.84,1.62-1.11,3.39-1.55,5.13Z"/>
      <path class="cls-9" d="m107.07,91.69c-3.33.91-4.9,3.52-6.03,6.44-1.71,4.41-2.04,9.01-1.59,13.71.21,2.2.63,4.34,1.36,6.42,1.05,2.99,2.55,5.64,5.65,7.13-2.68,0-5.36,0-8.03,0-2.22-.25-3.76-1.56-4.97-3.31-1.94-2.8-2.77-6-3.17-9.32-.64-5.31-.27-10.51,1.86-15.5.51-1.2,1.19-2.31,2.05-3.29,1.36-1.53,3.04-2.43,5.11-2.45,2.6-.02,5.2,0,7.8,0,.06.05.08.09.05.12-.03.03-.05.04-.08.04Z"/>
      <path class="cls-16" d="m192.76,159.62c-24.22,0-48.43,0-72.65-.01.4-.39.89-.21,1.34-.21,23.25,0,46.49,0,69.74,0,.54,0,1.09.05,1.6-.19-.01.14-.02.28-.03.41Z"/>
      <path class="cls-20" d="m183.29,97.75c-1.66,0-3.32.02-4.98.02-22.29,0-44.58,0-66.87-.01.3-.29.68-.18,1.03-.18,23.39,0,46.78-.01,70.17-.02.22,0,.43.02.65.03,0,.05,0,.1,0,.15Z"/>
      <path class="cls-7" d="m101.43,196.31c4.45,0,8.9,0,13.36-.03.41,0,.87.18,1.21-.23,2.1.45,4.23.1,6.34.22.78.05,1.58-.21,2.33.17-7.5.01-15.01.03-22.51.04-.25,0-.51,0-.72-.18Z"/>
      <path class="cls-5" d="m107.07,91.69c0-.05.02-.11.03-.16,1.8,0,3.6,0,5.41,0-1.8.37-3.62.09-5.44.16Z"/>
      <path class="cls-11" d="m104.93,153.27c-.93,0-1.86,0-2.78,0,.36-.31.89.06,1.23-.32.51.06,1.02.12,1.54.18.01.05.02.09.02.14Z"/>
      <path class="cls-19" d="m116.42,170.88c0,2.61,0,5.22,0,7.84-.3-.29-.2-.67-.21-1.02,0-1.94,0-3.87,0-5.81,0-.35-.1-.73.21-1.02Z"/>
      <path class="cls-18" d="m116.64,168.5c-.08.5.19,1.06-.2,1.52.05-.51-.19-1.06.2-1.52Z"/>
    </g>
  </g>
</svg>